<svg width="179" height="100" viewBox="0 0 179 100" fill="none" xmlns="http://www.w3.org/2000/svg">
<g clip-path="url(#clip0_1_4109)">
<path d="M124.112 2.36844L126.36 6.89806C126.923 8.08273 128.047 8.84928 129.312 9.05834L134.372 9.7552C137.605 10.243 138.87 14.1454 136.551 16.4451L132.896 19.9991C131.983 20.905 131.561 22.1594 131.772 23.4834L132.615 28.5008C133.177 31.7064 129.804 34.1454 126.923 32.6123L122.425 30.243C121.3 29.6158 119.895 29.6158 118.77 30.243L114.273 32.6123C111.391 34.1454 108.018 31.7064 108.58 28.5008L109.423 23.4834C109.634 22.2291 109.212 20.905 108.299 19.9991L104.644 16.4451C102.325 14.2151 103.59 10.243 106.823 9.7552L111.883 9.05834C113.148 8.84928 114.272 8.08273 114.835 6.89806L117.084 2.36844C118.489 -0.4887 122.636 -0.4887 124.112 2.36844Z" fill="#F4C82F"/>
<path d="M77.7975 77.6308L79.2031 80.4183C79.5545 81.1152 80.2572 81.603 81.0303 81.7423L84.1226 82.1605C86.0904 82.4392 86.9337 84.8782 85.4579 86.272L83.209 88.4322C82.6467 88.9897 82.3656 89.7563 82.5062 90.5925L83.0684 93.6587C83.4198 95.6099 81.3114 97.143 79.5545 96.1674L76.7433 94.704C76.0405 94.3556 75.1972 94.3556 74.4944 94.704L71.6832 96.1674C69.9263 97.0733 67.8179 95.6099 68.1693 93.6587L68.7315 90.5925C68.8721 89.826 68.591 88.9897 68.0287 88.4322L65.7798 86.272C64.304 84.8782 65.1473 82.4392 67.1151 82.1605L70.2074 81.7423C70.9804 81.603 71.6832 81.1152 72.0346 80.4183L73.4402 77.6308C74.3538 75.8887 76.8839 75.8887 77.7975 77.6308Z" fill="#F4C82F"/>
<path d="M154.894 27.1094H131.702H48.4221H18.2022C8.15234 27.1094 0 35.193 0 45.0885C0 55.0536 8.15234 63.1372 18.2022 63.1372L48.4221 63.3463H131.773L154.965 63.1372C165.015 63.1372 173.167 55.0536 173.167 45.0885C173.097 35.193 164.944 27.1094 154.894 27.1094Z" fill="#EC1E8E"/>
<path d="M26.703 43.9717V53.4491C25.9299 53.6581 25.1568 53.8672 24.2432 54.0763C22.6268 54.355 20.659 54.6337 18.4804 54.6337C12.5769 54.6337 10.1172 52.125 10.1172 48.7801C10.1172 45.4351 12.6472 42.9264 18.4804 42.9264C19.5345 42.9264 20.5184 42.9961 21.2212 43.0658C21.6429 43.0658 21.9943 43.1355 22.3457 43.2052C22.3457 41.3236 21.151 40.2087 18.4804 40.2087C17.1451 40.2087 15.9503 40.4874 15.107 40.7661C14.615 40.9055 14.1934 41.1146 13.7717 41.3933L12.085 38.3968C12.5769 38.0484 13.1392 37.7696 13.7717 37.4909C14.9664 37.0031 16.4423 36.585 18.4804 36.585C23.8918 36.6546 26.703 39.4421 26.703 43.9717ZM21.151 50.7313C21.5726 50.6616 21.924 50.5919 22.3457 50.5222V47.0379C21.9943 46.9682 21.5726 46.8986 21.151 46.8986C20.3779 46.8289 19.5345 46.7592 18.4804 46.7592C15.5989 46.7592 14.615 47.7348 14.615 48.9195C14.615 50.1041 15.5989 51.0797 18.4804 51.0797C19.5345 50.9404 20.4482 50.8707 21.151 50.7313Z" fill="white"/>
<path d="M37.8118 49.6173L42.5205 37.3525H47.2292L40.3419 53.9379H35.1412L28.2539 37.3525H32.9626L37.6713 49.6173H37.8118Z" fill="white"/>
<path d="M64.5858 43.9717V53.4491C63.8127 53.6581 63.0397 53.8672 62.126 54.0763C60.5096 54.355 58.5418 54.6337 56.3632 54.6337C50.4598 54.6337 48 52.125 48 48.7801C48 45.4351 50.53 42.9264 56.3632 42.9264C57.4174 42.9264 58.4013 42.9961 59.104 43.0658C59.5257 43.0658 59.8771 43.1355 60.2285 43.2052C60.2285 41.3236 59.0338 40.2087 56.3632 40.2087C55.0279 40.2087 53.8331 40.4874 52.9898 40.7661C52.4978 40.9055 52.0762 41.1146 51.6545 41.3933L49.9678 38.3968C50.4598 38.0484 51.022 37.7696 51.6545 37.4909C52.8492 37.0031 54.3251 36.585 56.3632 36.585C61.7044 36.6546 64.5858 39.4421 64.5858 43.9717ZM59.0338 50.7313C59.4554 50.6616 59.8068 50.5919 60.2285 50.5222V47.0379C59.8771 46.9682 59.4554 46.8986 59.0338 46.8986C58.2607 46.8289 57.4174 46.7592 56.3632 46.7592C53.4817 46.7592 52.4978 47.7348 52.4978 48.9195C52.4978 50.1041 53.4817 51.0797 56.3632 51.0797C57.3471 50.9404 58.331 50.8707 59.0338 50.7313Z" fill="white"/>
<path d="M74.4965 32.6127V37.2816H79.6971V40.766H74.4965V47.7346C74.4965 49.7555 75.6912 50.8705 77.659 50.8705C78.4321 50.8705 79.0646 50.7311 79.4863 50.5221C79.7674 50.4524 79.9782 50.313 80.1891 50.1736L81.173 53.5186C80.8216 53.658 80.3999 53.867 79.9782 54.0064C79.2052 54.2851 78.3618 54.4942 77.3076 54.4942C72.599 54.4942 70.0689 52.0552 70.0689 47.6649V40.6963H67.1875V37.212H70.0689L71.7556 32.543H74.4965V32.6127Z" fill="white"/>
<path d="M98.8083 43.9717V53.4491C98.0353 53.6581 97.2622 53.8672 96.3486 54.0763C94.7322 54.355 92.7643 54.6337 90.5857 54.6337C84.6823 54.6337 82.2225 52.125 82.2225 48.7801C82.2225 45.4351 84.7526 42.9264 90.5857 42.9264C91.6399 42.9264 92.6238 42.9961 93.3266 43.0658C93.7483 43.0658 94.0996 43.1355 94.451 43.2052C94.451 41.3236 93.2563 40.2087 90.5857 40.2087C89.2504 40.2087 88.0557 40.4874 87.2123 40.7661C86.7204 40.9055 86.2987 41.1146 85.877 41.3933L84.1903 38.3968C84.6823 38.0484 85.2445 37.7696 85.877 37.4909C87.0718 37.0031 88.5476 36.585 90.5857 36.585C95.9972 36.585 98.8083 39.4421 98.8083 43.9717ZM93.3266 50.6616C93.7483 50.5919 94.0996 50.5222 94.5213 50.4526V46.9682C94.1699 46.8986 93.7483 46.8289 93.3266 46.8289C92.5535 46.7592 91.7102 46.6895 90.656 46.6895C87.7746 46.6895 86.7907 47.6651 86.7907 48.8498C86.7907 50.0344 87.7746 51.01 90.656 51.01C91.6399 50.9404 92.6238 50.801 93.3266 50.6616Z" fill="white"/>
<path d="M108.232 40.7661C107.951 40.8358 107.599 40.9054 107.389 41.0448V54.2156H103.031V38.327C103.664 38.0483 104.367 37.7696 105.069 37.5605C106.405 37.1424 108.021 36.7939 109.919 36.7939C111.535 36.7939 112.941 37.0727 113.995 37.4908C114.627 37.6999 115.119 37.9089 115.611 38.1877L114.416 41.5326C114.065 41.3932 113.714 41.1842 113.292 41.0448C112.519 40.7661 111.465 40.557 110.27 40.557C109.427 40.4873 108.724 40.6267 108.232 40.7661Z" fill="white"/>
<path d="M122.146 37.4912H117.789V54.1463H122.146V37.4912Z" fill="white"/>
<path d="M143.508 53.5191C143.508 57.4912 139.994 61.1846 133.95 61.1846C131.912 61.1846 130.295 60.6968 129.171 60.209C128.468 59.9302 127.906 59.5818 127.414 59.2334L129.1 56.2369C129.522 56.4459 129.944 56.7247 130.506 56.9337C131.42 57.2821 132.544 57.6306 134.02 57.6306C136.269 57.6306 137.604 56.7247 138.307 55.8187C138.729 55.2612 139.08 54.7038 139.221 54.0069V53.6585C138.799 53.7281 138.447 53.7978 138.026 53.7978C137.253 53.8675 136.409 53.9372 135.566 53.9372C129.873 53.9372 126.641 50.8013 126.641 46.4111V37.4912H130.998V46.3414C130.998 48.5017 132.685 50.1741 135.566 50.1741C136.48 50.1741 137.393 50.0348 138.096 49.8954C138.518 49.8257 138.869 49.756 139.221 49.6863V37.4912H143.578V53.5191H143.508Z" fill="white"/>
<path d="M163.043 44.1807V53.6581C162.27 53.8671 161.497 54.0762 160.583 54.2852C158.967 54.564 156.999 54.8427 154.82 54.8427C148.917 54.8427 146.457 52.334 146.457 48.9891C146.457 45.6441 148.987 43.1354 154.82 43.1354C155.874 43.1354 156.858 43.2051 157.561 43.2748C157.983 43.2748 158.334 43.3445 158.686 43.4142C158.686 41.5326 157.491 40.4176 154.82 40.4176C153.485 40.4176 152.29 40.6964 151.447 40.9751C150.955 41.1145 150.533 41.3236 150.112 41.6023L148.425 38.6058C148.917 38.2574 149.479 37.9786 150.112 37.6999C151.306 37.2121 152.782 36.7939 154.82 36.7939C160.161 36.8636 163.043 39.6511 163.043 44.1807ZM157.491 50.8706C157.912 50.8009 158.264 50.7312 158.686 50.6615V47.1772C158.334 47.1075 157.912 47.0378 157.491 47.0378C156.718 46.9682 155.874 46.8985 154.82 46.8985C151.939 46.8985 150.955 47.8741 150.955 49.0588C150.955 50.2434 151.939 51.219 154.82 51.219C155.804 51.1493 156.788 51.01 157.491 50.8706Z" fill="white"/>
<path d="M20.9363 1.46341L22.4825 4.5993C22.9041 5.36585 23.6069 5.92335 24.5205 6.06272L27.9642 6.55052C30.2131 6.89895 31.0565 9.54704 29.4401 11.1498L26.91 13.5889C26.2775 14.216 25.9964 15.122 26.137 15.9582L26.6992 19.3728C27.0506 21.5331 24.7314 23.2056 22.7636 22.23L19.6713 20.6272C18.8982 20.2091 17.9143 20.2091 17.1413 20.6272L14.049 22.23C12.0812 23.2753 9.76201 21.6028 10.1134 19.3728L10.6756 15.9582C10.8162 15.122 10.5351 14.216 9.90257 13.5889L7.51309 11.1498C5.89668 9.61672 6.8103 6.89895 8.98894 6.55052L12.4326 6.06272C13.3462 5.92335 14.049 5.36585 14.4707 4.5993L16.0168 1.46341C17.071 -0.487805 19.8821 -0.487805 20.9363 1.46341Z" fill="#F4C82F"/>
<path d="M174.289 17.9085L175.062 19.4416C175.273 19.8597 175.624 20.1384 176.046 20.1384L177.803 20.4172C178.927 20.5565 179.349 21.9503 178.576 22.7168L177.311 23.9015C176.96 24.1802 176.819 24.668 176.96 25.0862L177.241 26.7586C177.452 27.8736 176.257 28.6402 175.273 28.1524L173.727 27.3161C173.305 27.1071 172.883 27.1071 172.462 27.3161L170.916 28.1524C169.932 28.6402 168.807 27.8039 168.948 26.7586L169.229 25.0862C169.299 24.668 169.159 24.1802 168.878 23.9015L167.613 22.7168C166.839 21.9503 167.261 20.6262 168.386 20.4172L170.143 20.1384C170.564 20.0687 170.986 19.79 171.126 19.4416L171.9 17.9085C172.391 16.9329 173.797 16.9329 174.289 17.9085Z" fill="#F4C82F"/>
<path d="M66.0663 6.48026L66.8394 8.01336C67.0502 8.43148 67.4016 8.71023 67.8233 8.71023L69.5803 8.98897C70.7047 9.12834 71.1264 10.5221 70.3533 11.2886L69.0883 12.4733C68.7369 12.752 68.5964 13.2398 68.7369 13.658L69.018 15.3304C69.2289 16.4454 68.0341 17.212 67.0502 16.7242L65.5041 15.8879C65.0824 15.6789 64.6608 15.6789 64.2391 15.8879L62.6929 16.7242C61.709 17.212 60.5846 16.3757 60.7251 15.3304L61.0063 13.658C61.0765 13.2398 60.936 12.752 60.6549 12.4733L59.3898 11.2886C58.6168 10.5221 59.0385 9.19803 60.1629 8.98897L61.9199 8.71023C62.3416 8.64054 62.7632 8.36179 62.9038 8.01336L63.6768 6.48026C64.1688 5.43497 65.5744 5.43497 66.0663 6.48026Z" fill="#F4C82F"/>
<path d="M15.8117 73.1013L16.5145 74.5647C16.7253 74.9132 17.0767 75.1919 17.4984 75.2616L19.1148 75.4707C20.169 75.61 20.5907 76.9341 19.8176 77.6309L18.6229 78.8156C18.3418 79.0943 18.2012 79.5125 18.2715 79.9306L18.5526 81.5334C18.7634 82.5787 17.639 83.3452 16.7253 82.8574L15.2495 82.0909C14.8981 81.8818 14.4061 81.8818 14.0547 82.0909L12.5789 82.8574C11.6653 83.3452 10.5408 82.5787 10.7516 81.5334L11.0328 79.9306C11.103 79.5125 10.9625 79.0943 10.6814 78.8156L9.48663 77.6309C8.71356 76.8644 9.13523 75.61 10.1894 75.4707L11.8058 75.2616C12.2275 75.1919 12.5789 74.9132 12.7897 74.5647L13.4925 73.1013C13.9845 72.1954 15.3198 72.1954 15.8117 73.1013Z" fill="#F4C82F"/>
<path d="M158.335 75.192L160.163 78.8854C160.655 79.7913 161.498 80.4882 162.552 80.6276L166.628 81.1851C169.229 81.5335 170.283 84.7391 168.385 86.5509L165.433 89.4081C164.66 90.1049 164.309 91.1502 164.52 92.1955L165.223 96.2373C165.644 98.8157 162.974 100.767 160.584 99.5823L156.93 97.7007C156.016 97.2129 154.892 97.2129 153.978 97.7007L150.324 99.5823C148.004 100.767 145.263 98.8157 145.685 96.2373L146.388 92.1955C146.599 91.1502 146.247 90.1049 145.474 89.4081L142.523 86.5509C140.625 84.7391 141.679 81.5335 144.28 81.1851L148.356 80.6276C149.41 80.4882 150.324 79.861 150.745 78.8854L152.572 75.192C153.837 72.8227 157.211 72.8227 158.335 75.192Z" fill="#F4C82F"/>
</g>
<defs>
<clipPath id="clip0_1_4109">
<rect width="179" height="100" fill="white"/>
</clipPath>
</defs>
</svg>
