<svg width="30" height="30" viewBox="0 0 30 30" fill="none" xmlns="http://www.w3.org/2000/svg">
<path d="M1.2962 15.7596L0.965924 15.0319C-0.863319 11.017 -0.0122129 6.2234 3.08734 3.09574C5.07537 1.09787 7.72396 0 10.544 0C13.3641 0 16.0127 1.09787 18.0008 3.09574L17.4863 3.61277C15.6316 1.7617 13.1672 0.740425 10.5377 0.740425C7.90816 0.740425 5.45011 1.7617 3.60181 3.61915C0.902409 6.3383 0.0322479 10.4234 1.33431 14.0043C1.81068 13.1489 2.39502 12.3702 3.08734 11.6745L4.89753 9.85532C5.06267 8.60425 5.63431 7.42979 6.51717 6.54255C8.74021 4.31489 12.3542 4.31489 14.5773 6.54255L20.8844 12.8745L20.3635 13.3915L14.0628 7.05957C12.1256 5.11915 8.97521 5.11915 7.038 7.05957C6.24405 7.85745 5.73593 8.9234 5.61525 10.0596L5.60255 10.1872L3.60181 12.1979C2.78246 13.0213 2.1219 13.9723 1.62648 15.0383L1.2962 15.7596ZM22.6056 15.1404L22.0848 14.6234L22.5739 14.1255C23.6346 13.0596 24.1554 11.5851 23.9966 10.066L24.7207 9.98936C24.8985 11.7255 24.3078 13.4234 23.0883 14.6489L22.6056 15.1404Z" fill="#343037"/>
<path d="M19.0675 29.7571C16.2475 29.7571 13.6052 28.6592 11.6172 26.655L12.1317 26.1379C13.98 27.9954 16.4444 29.0231 19.0675 29.0231C21.6907 29.0231 24.1551 27.9954 26.0034 26.1379C28.7092 23.4252 29.5793 19.3401 28.2773 15.7592C27.8073 16.6082 27.2166 17.3933 26.5242 18.089L26.0098 17.572C26.8355 16.7422 27.5024 15.7848 27.9851 14.7316L28.3154 14.0039L28.6457 14.7316C30.4813 18.7528 29.6302 23.5465 26.5242 26.6614C24.5362 28.6528 21.8876 29.7571 19.0675 29.7571Z" fill="#343037"/>
<path d="M4.87659 19.7761C4.69239 18.0399 5.28944 16.342 6.50893 15.1229L7.00435 14.625L7.51883 15.142L7.02341 15.6399C5.9627 16.7059 5.44187 18.1867 5.60066 19.6995L4.87659 19.7761Z" fill="#343037"/>
<path d="M19.0659 24.8852C17.6051 24.8852 16.1506 24.3299 15.0391 23.2129L15.5535 22.6958C17.4908 24.6363 20.6411 24.6363 22.5783 22.6958C23.385 21.8788 23.8804 20.8448 24.0011 19.6958L24.0138 19.5682L26.0018 17.5703L26.5163 18.0873L24.7125 19.9001C24.5537 21.1639 23.9947 22.3065 23.0992 23.2129C21.9876 24.3299 20.5268 24.8852 19.0659 24.8852Z" fill="#343037"/>
<path d="M14.5448 7.56223L14.0494 7.06436C13.1157 6.12606 11.8708 5.60904 10.5433 5.60904C10.3655 5.60904 10.1877 5.61543 10.0098 5.63457L9.93359 4.90691C10.1368 4.88777 10.3401 4.875 10.5433 4.875C12.0677 4.875 13.4968 5.46862 14.5639 6.54734L15.0593 7.04521L14.5448 7.56223Z" fill="#343037"/>
<path d="M10.5626 29.7524C7.81239 29.7524 5.10029 28.68 3.08685 26.6566C1.09882 24.6651 0 22.0034 0 19.1694C0 16.3354 1.09246 13.6737 3.08685 11.6758L3.60132 12.1928C1.75302 14.0502 0.730427 16.5268 0.730427 19.1694C0.730427 21.8056 1.75302 24.2758 3.60132 26.1332C6.30708 28.8524 10.3721 29.7205 13.9289 28.412C13.0778 27.9332 12.3029 27.346 11.617 26.6503L9.80678 24.8375C8.54917 24.6715 7.41225 24.1162 6.51033 23.2098C5.43692 22.1311 4.84622 20.6949 4.84622 19.163C4.84622 17.6311 5.43692 16.1949 6.51033 15.1162L7.0248 15.6332C6.09113 16.5715 5.5703 17.829 5.5703 19.163C5.5703 20.4971 6.08477 21.7545 7.0248 22.6928C7.8378 23.5034 8.86675 24.0013 10.01 24.1226L10.1371 24.1354L12.1314 26.1332C12.9444 26.9566 13.8972 27.6268 14.9515 28.1183L15.6756 28.4503L14.9515 28.7822C13.5542 29.4396 12.0489 29.7524 10.5626 29.7524Z" fill="#343037"/>
<path d="M26.5248 18.0894L26.0104 17.5723C27.865 15.7085 28.8876 13.2319 28.8876 10.5957C28.8876 7.95957 27.865 5.48298 26.0104 3.61915C24.1684 1.7617 21.704 0.740426 19.0745 0.740426C17.6644 0.740426 16.2417 1.05319 14.965 1.64043L14.6602 0.970213C16.0321 0.338298 17.5565 0 19.0745 0H19.0808C21.9009 0 24.5495 1.09787 26.5312 3.09574C28.5256 5.09362 29.618 7.75532 29.618 10.5894C29.6117 13.4298 28.5129 16.0915 26.5248 18.0894Z" fill="#343037"/>
<path d="M19.0589 24.8865C17.5536 24.8865 16.1182 24.2992 15.0384 23.2141L14.543 22.7162L15.0638 22.1992L15.5592 22.6971C16.6263 23.763 18.0998 24.2801 19.5988 24.1205L19.675 24.8545C19.4654 24.8737 19.2622 24.8865 19.0589 24.8865Z" fill="#343037"/>
<path d="M23.1014 14.6425L22.5869 14.1255C24.5241 12.1787 24.5241 9.01273 22.5869 7.06592C21.7802 6.25528 20.7513 5.75741 19.6017 5.64252L19.4746 5.62975L17.4866 3.6255C16.6672 2.80209 15.7145 2.13826 14.6602 1.64678L14.965 0.976562C16.0956 1.49997 17.1182 2.21486 18.0011 3.10209L19.8049 4.92124C21.0689 5.08082 22.2058 5.64252 23.1014 6.54252C25.318 8.77656 25.318 12.4085 23.1014 14.6425Z" fill="#343037"/>
<path d="M19.0694 24.8875C17.6085 24.8875 16.154 24.3322 15.0425 23.2151L8.72273 16.8641L9.2372 16.3471L15.557 22.6981C17.4942 24.6385 20.6446 24.6385 22.5818 22.6981C23.0963 22.1811 23.4837 21.5747 23.7251 20.9045L23.2678 21.3641C22.296 22.3407 21.2924 22.896 20.2825 23.0045C19.044 23.1449 17.8245 22.6215 16.6685 21.4534L10.4059 15.1598L10.9204 14.6428L17.183 20.9364C18.1802 21.9385 19.1964 22.3917 20.2 22.2768C21.0384 22.1811 21.8958 21.7024 22.7533 20.8471L24.8366 18.7471L24.7286 19.7811C24.5889 21.096 24.0299 22.2832 23.0963 23.2215C21.9911 24.3322 20.5302 24.8875 19.0694 24.8875ZM7.52864 15.1407L7.00781 14.6237L8.69732 12.9258L9.2118 13.4428L7.52864 15.1407Z" fill="#343037"/>
<path d="M10.9635 24.9567L9.93451 24.8482C8.62609 24.7141 7.4447 24.146 6.51103 23.2141C4.28799 20.9801 4.28799 17.3482 6.51103 15.1141L12.9007 8.69922L13.4152 9.22262L7.03185 15.6375C5.09464 17.5843 5.09464 20.7503 7.03185 22.6971C7.54633 23.2141 8.15608 23.6035 8.81664 23.846L8.36568 23.3928C6.1744 21.1843 6.14264 18.8928 8.27041 16.7482L14.5838 10.4035L15.0983 10.9205L8.78488 17.2652C6.94293 19.1162 6.97469 20.9482 8.88015 22.8694L10.9635 24.9567Z" fill="#343037"/>
<path d="M14.5482 7.56588L16.2383 9.26172L16.7544 8.74224L15.0643 7.0464L14.5482 7.56588Z" fill="#343037"/>
<path d="M18.6861 15.0124L12.487 8.7698C10.6514 6.91874 8.82214 6.95065 6.91032 8.85916L5.56379 10.2187L5.04297 9.70171L6.39585 8.34214C8.59348 6.1464 10.88 6.11448 13.0078 8.25278L19.2069 14.4953L18.6861 15.0124Z" fill="#343037"/>
<path d="M16.493 21.2792L14.2891 19.0579L20.8248 12.4898C21.822 11.4877 22.2666 10.4664 22.1586 9.45788C22.0633 8.61533 21.587 7.74724 20.7295 6.8983L18.6462 4.80469L19.6688 4.9132C20.9836 5.05362 22.165 5.61533 23.0923 6.55362C25.3153 8.78767 25.3153 12.4196 23.0923 14.6536L16.493 21.2792ZM15.318 19.0579L16.493 20.2387L22.5778 14.1238C24.515 12.177 24.515 9.01107 22.5778 7.06426C22.0633 6.54724 21.4536 6.15788 20.7867 5.90894L21.2503 6.3749C22.2221 7.3515 22.7747 8.36001 22.889 9.3749C23.0288 10.6196 22.508 11.8387 21.3456 13.0068L15.318 19.0579Z" fill="#343037"/>
</svg>
