<svg width="24" height="24" viewBox="0 0 24 24" fill="none" xmlns="http://www.w3.org/2000/svg">
<rect x="0.75" y="0.75" width="22.5" height="22.5" rx="11.25" stroke="#B829A0" stroke-width="1.5"/>
<g clip-path="url(#clip0_36_2246)">
<path d="M10.2344 16.2402C10.3111 16.2402 10.3773 16.2309 10.4346 16.2158C10.4963 16.1995 10.547 16.1784 10.5898 16.1553L16.709 12.2275C16.8459 12.1164 16.8574 12.0437 16.8574 11.9854C16.8574 11.9271 16.8454 11.8551 16.709 11.7441L10.5918 7.83691C10.5485 7.81327 10.4974 7.79099 10.4346 7.77441C10.3773 7.75934 10.3111 7.75 10.2344 7.75C10.0419 7.75 9.91802 7.7992 9.82324 7.87207C9.76978 7.91325 9.75518 7.93905 9.75391 7.94141V16.0488C9.75518 16.0512 9.76978 16.077 9.82324 16.1182C9.91802 16.191 10.0419 16.2402 10.2344 16.2402Z" stroke="#B829A0" stroke-width="1.5"/>
</g>
<defs>
<clipPath id="clip0_36_2246">
<rect width="8.61" height="10" fill="white" transform="matrix(1 0 0 -1 9 17)"/>
</clipPath>
</defs>
</svg>
