<svg width="24" height="24" viewBox="0 0 24 24" fill="none" xmlns="http://www.w3.org/2000/svg">
<path fill-rule="evenodd" clip-rule="evenodd" d="M17.04 14.1836C16.7663 14.0473 15.4207 13.3884 15.1698 13.2974C14.9189 13.2065 14.7365 13.1611 14.554 13.4337C14.3715 13.7064 13.847 14.32 13.6873 14.5018C13.5277 14.6836 13.368 14.7064 13.0943 14.57C12.8206 14.4337 11.9387 14.1461 10.8933 13.218C10.0796 12.4957 9.53028 11.6037 9.37066 11.331C9.21098 11.0583 9.3536 10.9109 9.49063 10.7751C9.61382 10.653 9.76438 10.4569 9.90119 10.2978C10.0381 10.1388 10.0837 10.0251 10.1749 9.84343C10.2661 9.6616 10.2205 9.50256 10.152 9.36624C10.0837 9.22991 9.5363 7.88911 9.30822 7.34362C9.08603 6.81255 8.8604 6.88447 8.69239 6.87605C8.53294 6.86818 8.35023 6.86651 8.16783 6.86651C7.98539 6.86651 7.68882 6.93468 7.43792 7.20729C7.18707 7.47999 6.48002 8.13906 6.48002 9.47973C6.48002 10.8206 7.46074 12.1157 7.59759 12.2976C7.73445 12.4794 9.52758 15.2307 12.2733 16.4106C12.9262 16.6913 13.4361 16.8589 13.8336 16.9844C14.4892 17.1917 15.0859 17.1625 15.5575 17.0923C16.0834 17.0142 17.1768 16.4334 17.405 15.7972C17.633 15.1608 17.633 14.6154 17.5646 14.5018C17.4962 14.3882 17.3137 14.32 17.04 14.1836ZM12.046 20.9699H12.0423C10.4086 20.9692 8.80622 20.5324 7.40836 19.7068L7.07587 19.5105L3.63003 20.4101L4.54978 17.0664L4.33334 16.7236C3.42193 15.281 2.94055 13.6136 2.94129 11.9015C2.9433 6.90568 7.02761 2.84126 12.0496 2.84126C14.4814 2.84207 16.7674 3.78581 18.4864 5.49852C20.2054 7.21118 21.1514 9.48773 21.1505 11.9088C21.1484 16.905 17.0642 20.9699 12.046 20.9699ZM19.7947 4.19711C17.7265 2.13652 14.9762 1.0012 12.0459 1C6.00818 1 1.09423 5.89014 1.09178 11.9008C1.09101 13.8222 1.59538 15.6976 2.55401 17.3509L1 23L6.80684 21.484C8.40682 22.3526 10.2082 22.8103 12.0416 22.8109H12.0461C18.0831 22.8109 22.9975 17.9203 23 11.9095C23.0011 8.99663 21.8627 6.25769 19.7947 4.19711Z" fill="#00AF6C"/>
</svg>
