<svg width="80" height="80" viewBox="0 0 80 80" fill="none" xmlns="http://www.w3.org/2000/svg">
<rect width="80" height="80" rx="40" fill="url(#paint0_linear_36_1563)"/>
<path opacity="0.4" d="M52.3932 31.0632L52.1016 30.8965L49.2057 29.2298L43.2266 25.7715C41.3932 24.709 38.6016 24.709 36.7682 25.7715L30.7891 29.2298L27.8932 30.9173L27.5182 31.1257C23.7891 33.6257 23.5391 34.084 23.5391 38.1048V47.709C23.5391 51.7298 23.7891 52.1882 27.6016 54.7507L36.7682 60.0423C37.6849 60.584 38.8307 60.834 39.9974 60.834C41.1432 60.834 42.3099 60.584 43.2266 60.0423L52.4766 54.6882C56.2057 52.1882 56.4557 51.7298 56.4557 47.709V38.1048C56.4557 34.084 56.2057 33.6257 52.3932 31.0632Z" fill="white"/>
<path d="M27.8984 30.916L30.7943 29.2285L36.5026 25.9368L36.7734 25.7702C38.6068 24.7077 41.3984 24.7077 43.2318 25.7702L43.5026 25.9368L49.2109 29.2285L52.1068 30.8952V26.4368C52.1068 21.7493 49.5234 19.166 44.8359 19.166H35.1484C30.4609 19.166 27.8984 21.7493 27.8984 26.4368V30.916Z" fill="white"/>
<path d="M45.9165 42.792L44.6248 44.3753C44.4165 44.6045 44.2706 45.0628 44.2915 45.3753L44.4165 47.417C44.4998 48.667 43.604 49.3128 42.4373 48.8545L40.5415 48.1045C40.2498 48.0003 39.7498 48.0003 39.4581 48.1045L37.5623 48.8545C36.3956 49.3128 35.4998 48.667 35.5831 47.417L35.7081 45.3753C35.729 45.0628 35.5831 44.6045 35.3748 44.3753L34.0831 42.792C33.2706 41.8337 33.6248 40.7712 34.8331 40.4587L36.8123 39.9587C37.1248 39.8753 37.4998 39.5837 37.6665 39.3128L38.7706 37.6045C39.4581 36.542 40.5415 36.542 41.229 37.6045L42.3331 39.3128C42.4998 39.5837 42.8748 39.8753 43.1873 39.9587L45.1665 40.4587C46.3748 40.7712 46.729 41.8337 45.9165 42.792Z" fill="white"/>
<defs>
<linearGradient id="paint0_linear_36_1563" x1="2.98023e-07" y1="40" x2="80" y2="40" gradientUnits="userSpaceOnUse">
<stop stop-color="#B829A0"/>
<stop offset="1" stop-color="#6366F1"/>
</linearGradient>
</defs>
</svg>
