<svg width="80" height="80" viewBox="0 0 80 80" fill="none" xmlns="http://www.w3.org/2000/svg">
<rect width="80" height="80" rx="40" fill="url(#paint0_linear_36_1573)"/>
<path opacity="0.4" d="M51.5182 31.1869C51.3724 31.166 51.2266 31.166 51.0807 31.1869C47.8516 31.0827 45.2891 28.4368 45.2891 25.1868C45.2891 21.8743 47.9766 19.166 51.3099 19.166C54.6224 19.166 57.3307 21.8535 57.3307 25.1868C57.3099 28.4368 54.7474 31.0827 51.5182 31.1869Z" fill="white"/>
<path opacity="0.4" d="M58.3151 45.6248C55.9818 47.1873 52.7109 47.7707 49.6901 47.3748C50.4818 45.6665 50.8984 43.7707 50.9193 41.7707C50.9193 39.6874 50.4609 37.7082 49.5859 35.979C52.6693 35.5624 55.9401 36.1457 58.2943 37.7082C61.5859 39.8748 61.5859 43.4373 58.3151 45.6248Z" fill="white"/>
<path opacity="0.4" d="M28.4141 31.1869C28.5599 31.166 28.7057 31.166 28.8516 31.1869C32.0807 31.0827 34.6432 28.4368 34.6432 25.1868C34.6432 21.8743 31.9557 19.166 28.6224 19.166C25.3099 19.166 22.6016 21.8535 22.6016 25.1868C22.6224 28.4368 25.1849 31.0827 28.4141 31.1869Z" fill="white"/>
<path opacity="0.4" d="M28.6458 41.7711C28.6458 43.7919 29.0833 45.7086 29.875 47.4378C26.9375 47.7503 23.875 47.1253 21.625 45.6461C18.3333 43.4586 18.3333 39.8961 21.625 37.7086C23.8542 36.2086 27 35.6044 29.9583 35.9378C29.1042 37.6878 28.6458 39.6669 28.6458 41.7711Z" fill="white"/>
<path d="M40.25 48.0625C40.0833 48.0417 39.8958 48.0417 39.7083 48.0625C35.875 47.9375 32.8125 44.7917 32.8125 40.9167C32.8125 36.9583 36 33.75 39.9792 33.75C43.9375 33.75 47.1458 36.9583 47.1458 40.9167C47.1458 44.7917 44.1042 47.9375 40.25 48.0625Z" fill="white"/>
<path d="M33.4766 52.375C30.3307 54.4792 30.3307 57.9375 33.4766 60.0208C37.0599 62.4167 42.9349 62.4167 46.5182 60.0208C49.6641 57.9167 49.6641 54.4583 46.5182 52.375C42.9557 49.9792 37.0807 49.9792 33.4766 52.375Z" fill="white"/>
<defs>
<linearGradient id="paint0_linear_36_1573" x1="2.98023e-07" y1="40" x2="80" y2="40" gradientUnits="userSpaceOnUse">
<stop stop-color="#B829A0"/>
<stop offset="1" stop-color="#6366F1"/>
</linearGradient>
</defs>
</svg>
