<svg width="80" height="80" viewBox="0 0 80 80" fill="none" xmlns="http://www.w3.org/2000/svg">
<rect width="80" height="80" rx="40" fill="url(#paint0_linear_36_209)"/>
<path d="M40 43.6462C39.1458 43.6462 38.4375 42.9378 38.4375 42.0837V31.667C38.4375 30.8128 39.1458 30.1045 40 30.1045C40.8542 30.1045 41.5625 30.8128 41.5625 31.667V42.0837C41.5625 42.9378 40.8542 43.6462 40 43.6462Z" fill="white"/>
<path d="M46.0202 22.1873H33.9785C33.1452 22.1873 32.4785 21.5207 32.4785 20.6873C32.4785 19.854 33.1452 19.1665 33.9785 19.1665H46.0202C46.8535 19.1665 47.5202 19.8332 47.5202 20.6665C47.5202 21.4998 46.8535 22.1873 46.0202 22.1873Z" fill="white"/>
<path opacity="0.4" d="M46.25 56.6038V50.4788C46.25 47.833 47.8333 46.2497 50.4792 46.2497H56.6042C57 46.2497 57.3542 46.2913 57.7083 46.3747C57.9375 45.208 58.0625 43.9997 58.0625 42.7705C58.0625 32.8122 49.9583 24.708 40 24.708C30.0417 24.708 21.9375 32.8122 21.9375 42.7705C21.9375 52.7288 30.0417 60.833 40 60.833C42.5208 60.833 44.9167 60.3122 47.1042 59.3747C46.5625 58.6663 46.25 57.7497 46.25 56.6038Z" fill="white"/>
<path d="M56.6042 46.25H50.5C47.8333 46.25 46.25 47.8333 46.25 50.4792V56.5833C46.25 59.2292 47.8333 60.8125 50.4792 60.8125H56.5833C59.2292 60.8125 60.8125 59.2292 60.8125 56.5833V50.4792C60.8333 47.8333 59.25 46.25 56.6042 46.25ZM52.3333 56.7917C52.3333 57.4583 51.7917 58 51.125 58C50.4583 58 49.9167 57.4583 49.9167 56.7917V50.3125C49.9167 49.6458 50.4583 49.1042 51.125 49.1042C51.7917 49.1042 52.3333 49.6458 52.3333 50.3125V56.7917ZM57.1875 56.7917C57.1875 57.4583 56.6458 58 55.9792 58C55.3125 58 54.7708 57.4583 54.7708 56.7917V50.3125C54.7708 49.6458 55.3125 49.1042 55.9792 49.1042C56.6458 49.1042 57.1875 49.6458 57.1875 50.3125V56.7917Z" fill="white"/>
<defs>
<linearGradient id="paint0_linear_36_209" x1="2.98023e-07" y1="40" x2="80" y2="40" gradientUnits="userSpaceOnUse">
<stop stop-color="#B829A0"/>
<stop offset="1" stop-color="#6366F1"/>
</linearGradient>
</defs>
</svg>
