<svg width="30" height="30" viewBox="0 0 30 30" fill="none" xmlns="http://www.w3.org/2000/svg">
<path d="M25 8.75V21.25C25 26.25 23.75 27.5 18.75 27.5H11.25C6.25 27.5 5 26.25 5 21.25V8.75C5 3.75 6.25 2.5 11.25 2.5H18.75C23.75 2.5 25 3.75 25 8.75Z" stroke="#343037" stroke-width="2" stroke-linecap="round" stroke-linejoin="round"/>
<path d="M17.5 6.875H12.5" stroke="#343037" stroke-width="2" stroke-linecap="round" stroke-linejoin="round"/>
<path d="M15 23.875C16.0701 23.875 16.9375 23.0076 16.9375 21.9375C16.9375 20.8674 16.0701 20 15 20C13.9299 20 13.0625 20.8674 13.0625 21.9375C13.0625 23.0076 13.9299 23.875 15 23.875Z" stroke="#343037" stroke-width="2" stroke-linecap="round" stroke-linejoin="round"/>
</svg>
