<svg width="206" height="40" viewBox="0 0 206 40" fill="none" xmlns="http://www.w3.org/2000/svg">
<path d="M1.72638 21.0128L1.28649 20.0426C-1.1498 14.6894 -0.0162486 8.29787 4.11192 4.12766C6.7597 1.46383 10.2872 0 14.0432 0C17.7992 0 21.3267 1.46383 23.9745 4.12766L23.2893 4.81702C20.8192 2.34894 17.5369 0.987234 14.0347 0.987234C10.5326 0.987234 7.2588 2.34894 4.79713 4.82553C1.2019 8.45106 0.042967 13.8979 1.77714 18.6723C2.41159 17.5319 3.18985 16.4936 4.11192 15.566L6.52283 13.1404C6.74278 11.4723 7.50412 9.90638 8.67997 8.7234C11.6407 5.75319 16.4541 5.75319 19.4149 8.7234L27.815 17.166L27.1214 17.8553L18.7297 9.41277C16.1496 6.82553 11.9537 6.82553 9.37364 9.41277C8.31622 10.4766 7.63947 11.8979 7.47874 13.4128L7.46182 13.583L4.79713 16.2638C3.70587 17.3617 2.8261 18.6298 2.16627 20.0511L1.72638 21.0128ZM30.1075 20.1872L29.4139 19.4979L30.0652 18.834C31.4779 17.4128 32.1716 15.4468 31.9601 13.4213L32.9245 13.3191C33.1614 15.634 32.3746 17.8979 30.7504 19.5319L30.1075 20.1872Z" fill="#343037"/>
<path d="M25.3916 39.6761C21.6356 39.6761 18.1165 38.2123 15.4688 35.54L16.154 34.8506C18.6156 37.3272 21.8979 38.6974 25.3916 38.6974C28.8853 38.6974 32.1675 37.3272 34.6292 34.8506C38.2329 31.2336 39.3918 25.7868 37.6576 21.0123C37.0317 22.1442 36.2449 23.191 35.3229 24.1187L34.6377 23.4293C35.7374 22.3229 36.6256 21.0463 37.2685 19.6421L37.7084 18.6719L38.1483 19.6421C40.593 25.0038 39.4595 31.3953 35.3229 35.5485C32.6751 38.2038 29.1475 39.6761 25.3916 39.6761Z" fill="#343037"/>
<path d="M6.49686 26.3681C6.25154 24.0532 7.04672 21.7894 8.67091 20.1638L9.33074 19.5L10.016 20.1894L9.35612 20.8532C7.94341 22.2745 7.24974 24.2489 7.46122 26.266L6.49686 26.3681Z" fill="#343037"/>
<path d="M25.3945 33.1829C23.4488 33.1829 21.5116 32.4425 20.0312 30.9531L20.7165 30.2637C23.2966 32.851 27.4924 32.851 30.0725 30.2637C31.1468 29.1744 31.8067 27.7956 31.9674 26.2637L31.9843 26.0935L34.6321 23.4297L35.3173 24.119L32.9149 26.5361C32.7034 28.2212 31.9589 29.7446 30.7662 30.9531C29.2858 32.4425 27.3401 33.1829 25.3945 33.1829Z" fill="#343037"/>
<path d="M19.372 10.083L18.7121 9.41915C17.4686 8.16808 15.8106 7.47872 14.0426 7.47872C13.8057 7.47872 13.5688 7.48723 13.332 7.51277L13.2305 6.54255C13.5012 6.51702 13.7719 6.5 14.0426 6.5C16.0728 6.5 17.9762 7.29149 19.3973 8.72979L20.0572 9.39362L19.372 10.083Z" fill="#343037"/>
<path d="M14.0679 39.6685C10.405 39.6685 6.79286 38.2387 4.11125 35.5409C1.46347 32.8856 0 29.3366 0 25.5579C0 21.7792 1.45501 18.2302 4.11125 15.5664L4.79646 16.2558C2.33478 18.7324 0.972826 22.0345 0.972826 25.5579C0.972826 29.0728 2.33478 32.3664 4.79646 34.843C8.40014 38.4685 13.8141 39.626 18.5514 37.8813C17.4178 37.243 16.3858 36.46 15.4722 35.5324L13.0612 33.1153C11.3863 32.8941 9.87207 32.1536 8.67084 30.9451C7.24121 29.5068 6.45449 27.5919 6.45449 25.5494C6.45449 23.5068 7.24121 21.5919 8.67084 20.1536L9.35605 20.843C8.11252 22.0941 7.41886 23.7707 7.41886 25.5494C7.41886 27.3281 8.10406 29.0047 9.35605 30.2558C10.4388 31.3366 11.8093 32.0004 13.3319 32.1622L13.5011 32.1792L16.1574 34.843C17.2402 35.9409 18.5091 36.8345 19.9133 37.4898L20.8777 37.9324L19.9133 38.3749C18.0523 39.2515 16.0474 39.6685 14.0679 39.6685Z" fill="#343037"/>
<path d="M35.3255 24.1191L34.6403 23.4298C37.1104 20.9447 38.4724 17.6426 38.4724 14.1277C38.4724 10.6128 37.1104 7.31064 34.6403 4.82553C32.1871 2.34894 28.9049 0.987234 25.4027 0.987234C23.5247 0.987234 21.6298 1.40426 19.9295 2.18723L19.5234 1.29362C21.3507 0.451064 23.3809 0 25.4027 0H25.4111C29.1671 0 32.6947 1.46383 35.334 4.12766C37.9902 6.79149 39.4452 10.3404 39.4452 14.1191C39.4368 17.9064 37.9733 21.4553 35.3255 24.1191Z" fill="#343037"/>
<path d="M25.3857 33.1845C23.3808 33.1845 21.469 32.4016 20.0309 30.9548L19.3711 30.2909L20.0648 29.6016L20.7246 30.2654C22.1458 31.6867 24.1083 32.376 26.1047 32.1633L26.2063 33.142C25.9271 33.1675 25.6564 33.1845 25.3857 33.1845Z" fill="#343037"/>
<path d="M30.7659 19.526L30.0807 18.8366C32.6608 16.2409 32.6608 12.0196 30.0807 9.42383C29.0064 8.34298 27.636 7.67916 26.1048 7.52596L25.9356 7.50894L23.2879 4.8366C22.1966 3.73873 20.9277 2.85362 19.5234 2.1983L19.9295 1.30469C21.4353 2.00256 22.7972 2.95575 23.9731 4.13873L26.3755 6.56426C28.0589 6.77703 29.5732 7.52596 30.7659 8.72596C33.7182 11.7047 33.7182 16.5472 30.7659 19.526Z" fill="#343037"/>
<path d="M25.3964 33.1833C23.4507 33.1833 21.5135 32.4429 20.0331 30.9535L11.6161 22.4854L12.3013 21.7961L20.7183 30.2642C23.2984 32.8514 27.4943 32.8514 30.0744 30.2642C30.7596 29.5748 31.2756 28.7663 31.5971 27.8727L30.988 28.4854C29.6937 29.7876 28.3571 30.528 27.0121 30.6727C25.3625 30.8599 23.7383 30.162 22.1987 28.6046L13.8578 20.2131L14.543 19.5237L22.8839 27.9152C24.212 29.2514 25.5655 29.8557 26.9021 29.7025C28.0188 29.5748 29.1608 28.9365 30.3028 27.7961L33.0775 24.9961L32.9336 26.3748C32.7475 28.128 32.0031 29.711 30.7596 30.962C29.2877 32.4429 27.342 33.1833 25.3964 33.1833ZM10.0257 20.1876L9.33203 19.4982L11.5822 17.2344L12.2674 17.9237L10.0257 20.1876Z" fill="#343037"/>
<path d="M14.6037 33.2782L13.2333 33.1335C11.4907 32.9548 9.91723 32.1973 8.67371 30.9548C5.71293 27.976 5.71293 23.1335 8.67371 20.1548L17.1838 11.6016L17.869 12.2994L9.36737 20.8526C6.78727 23.4484 6.78727 27.6696 9.36737 30.2654C10.0526 30.9548 10.8647 31.4739 11.7445 31.7973L11.1438 31.193C8.22536 28.2484 8.18306 25.193 11.0169 22.3335L19.4255 13.8739L20.1108 14.5633L11.7022 23.0228C9.24894 25.4909 9.29124 27.9335 11.829 30.4952L14.6037 33.2782Z" fill="#343037"/>
<path d="M19.374 10.0865L21.625 12.3477L22.3124 11.655L20.0614 9.39389L19.374 10.0865Z" fill="#343037"/>
<path d="M24.8895 20.0191L16.6331 11.6957C14.1884 9.22759 11.7521 9.27014 9.2058 11.8148L7.41242 13.6276L6.71875 12.9382L8.52059 11.1255C11.4475 8.1978 14.4929 8.15524 17.3268 11.0063L25.5831 19.3297L24.8895 20.0191Z" fill="#343037"/>
<path d="M21.9666 28.3722L19.0312 25.4105L27.7359 16.6531C29.064 15.3169 29.6562 13.9552 29.5124 12.6105C29.3855 11.4871 28.7511 10.3297 27.609 9.19774L24.8344 6.40625L26.1963 6.55093C27.9474 6.73817 29.5209 7.4871 30.7559 8.73817C33.7167 11.7169 33.7167 16.5594 30.7559 19.5382L21.9666 28.3722ZM20.4017 25.4105L21.9666 26.985L30.0707 18.8318C32.6508 16.236 32.6508 12.0148 30.0707 9.41902C29.3855 8.72965 28.5734 8.21051 27.6852 7.87859L28.3027 8.49987C29.597 9.802 30.333 11.1467 30.4852 12.4999C30.6713 14.1594 29.9777 15.785 28.4296 17.3424L20.4017 25.4105Z" fill="#343037"/>
<path d="M65.5699 29.3564V20.6278H54.4924V29.3564H52.2109V10.3164H54.4924V18.7657H65.5699V10.3164H67.8513V29.3564H65.5699Z" fill="#343037"/>
<path d="M92.2396 19.8613C92.2396 21.2812 91.9607 22.5847 91.4031 23.795C90.8454 25.0054 90.0849 26.0528 89.1216 26.914C88.1584 27.7753 87.0684 28.4736 85.7755 28.9624C84.5081 29.4512 83.1899 29.6839 81.7957 29.6839C80.4015 29.6839 79.0834 29.4279 77.8413 28.9624C76.5992 28.4736 75.5092 27.7985 74.5712 26.914C73.6333 26.0528 72.8982 25.0054 72.3659 23.795C71.8335 22.5847 71.5547 21.2812 71.5547 19.8613C71.5547 18.4182 71.8335 17.0915 72.4166 15.8811C72.9996 14.6707 73.7347 13.6466 74.698 12.7853C75.6612 11.9241 76.7513 11.2258 78.0187 10.737C79.2862 10.2482 80.6297 9.99219 82.0239 9.99219C83.4181 9.99219 84.7362 10.2482 85.9783 10.737C87.2204 11.2258 88.3105 11.9008 89.2484 12.7853C90.1863 13.6466 90.9214 14.694 91.4537 15.8811C91.9607 17.0915 92.2396 18.4182 92.2396 19.8613ZM89.7807 19.8613C89.7807 18.7441 89.5779 17.6734 89.1977 16.719C88.8174 15.7414 88.2598 14.9035 87.5753 14.1819C86.8656 13.4604 86.029 12.9017 85.0658 12.4828C84.1025 12.0638 83.0378 11.8543 81.8971 11.8543C80.7564 11.8543 79.6918 12.0638 78.7031 12.4828C77.7399 12.8784 76.9034 13.4604 76.1936 14.1819C75.4838 14.9035 74.9515 15.7414 74.5712 16.719C74.191 17.6966 73.9882 18.7441 73.9882 19.8613C73.9882 20.9786 74.191 22.026 74.5712 23.0036C74.9515 23.9812 75.5091 24.8192 76.1936 25.5407C76.9034 26.2623 77.7399 26.8209 78.7031 27.2399C79.6664 27.6356 80.7311 27.8451 81.8971 27.8451C83.0378 27.8451 84.1025 27.6356 85.0658 27.2399C86.029 26.8209 86.8656 26.2623 87.5753 25.5407C88.2598 24.8192 88.8174 23.9812 89.1977 23.0036C89.5779 22.026 89.7807 20.9786 89.7807 19.8613Z" fill="#343037"/>
<path d="M106.306 24.214C106.306 24.9821 106.154 25.727 105.824 26.3787C105.495 27.0304 105.064 27.6123 104.506 28.1011C103.923 28.6132 103.264 28.9856 102.478 29.265C101.692 29.5443 100.856 29.6839 99.9687 29.6839C98.7773 29.6839 97.6873 29.521 96.7493 29.2184C95.7861 28.9158 94.8735 28.4736 93.9609 27.9149L95.0763 26.0994C95.8621 26.6115 96.6986 27.0304 97.5605 27.333C98.4224 27.6356 99.2589 27.7753 100.07 27.7753C100.729 27.7753 101.312 27.6822 101.794 27.5192C102.301 27.333 102.681 27.077 103.011 26.7744C103.315 26.4718 103.568 26.0994 103.72 25.7037C103.872 25.308 103.974 24.889 103.974 24.4468C103.974 24.0278 103.923 23.6554 103.796 23.3062C103.67 22.9571 103.467 22.6312 103.188 22.3053C102.909 22.0028 102.478 21.6769 101.946 21.3743C101.414 21.0717 100.704 20.7458 99.8673 20.3967C98.9547 20.0243 98.1942 19.6518 97.5859 19.3027C96.9521 18.9303 96.4452 18.5346 96.0649 18.0923C95.6847 17.6734 95.4058 17.2311 95.2284 16.7423C95.0509 16.2535 94.9496 15.7414 94.9496 15.1828C94.9496 14.4845 95.1016 13.8328 95.4058 13.2043C95.71 12.5759 96.141 12.0172 96.6986 11.5517C97.2563 11.0629 97.9407 10.6905 98.7266 10.4112C99.5124 10.1318 100.374 9.99219 101.312 9.99219C102.199 9.99219 103.036 10.1086 103.822 10.3646C104.608 10.5974 105.317 10.9232 105.9 11.2957L104.886 13.0647C104.379 12.7155 103.796 12.4362 103.137 12.2267C102.478 12.0172 101.819 11.9008 101.135 11.9008C100.501 11.9008 99.918 11.9939 99.411 12.1569C98.904 12.3198 98.4984 12.5526 98.1689 12.8552C97.8393 13.1345 97.6112 13.4836 97.4338 13.8793C97.2563 14.275 97.1803 14.694 97.1803 15.113C97.1803 15.7647 97.4338 16.3699 97.9914 16.9285C98.5238 17.4872 99.4363 18.0225 100.729 18.5579C101.794 19.0001 102.681 19.4424 103.416 19.8381C104.126 20.257 104.709 20.676 105.14 21.095C105.571 21.5372 105.85 22.0028 106.027 22.4916C106.23 23.0036 106.306 23.5855 106.306 24.214Z" fill="#343037"/>
<path d="M117.54 12.1785V29.3564H115.258V12.1785H108.312V10.3164H124.435V12.1785H117.54Z" fill="#343037"/>
<path d="M127.168 29.3564V10.3164H139.31V12.1785H129.424V18.7657H138.322V20.6278H129.424V27.4943H139.31V29.3564H127.168Z" fill="#343037"/>
<path d="M154.268 29.3631L148.742 21.8449C148.514 21.8449 148.286 21.8681 148.058 21.8681C147.83 21.8681 147.601 21.8914 147.348 21.8914C147.018 21.8914 146.613 21.8914 146.157 21.8681C145.726 21.8681 145.32 21.8449 144.99 21.8449V29.3631H142.734V10.486C143.52 10.3929 144.281 10.3231 145.066 10.2533C145.852 10.2067 146.663 10.1602 147.525 10.1602C148.869 10.1602 150.035 10.2998 151.024 10.6024C152.037 10.8817 152.849 11.2774 153.533 11.7895C154.192 12.3016 154.674 12.9068 155.029 13.605C155.358 14.3033 155.51 15.0715 155.51 15.8861C155.51 17.2129 155.13 18.3767 154.344 19.3077C153.584 20.2621 152.443 20.9604 150.973 21.3793L157.006 29.3398H154.268V29.3631ZM153.077 16.0258C153.077 15.4671 152.95 14.9551 152.747 14.4663C152.519 13.9775 152.19 13.5585 151.759 13.2093C151.328 12.8602 150.77 12.5809 150.136 12.3714C149.477 12.1619 148.717 12.0455 147.88 12.0455C147.373 12.0455 146.892 12.0688 146.359 12.0921C145.827 12.1154 145.396 12.1619 145.016 12.2783V20.006C145.345 20.0526 145.776 20.0759 146.233 20.0991C146.689 20.1224 147.12 20.1224 147.525 20.1224C149.477 20.1224 150.871 19.75 151.759 19.0051C152.646 18.2836 153.077 17.2827 153.077 16.0258Z" fill="#343037"/>
<path d="M159.414 27.5169C159.414 26.935 159.617 26.4695 160.048 26.0505C160.479 25.6548 161.011 25.4453 161.594 25.4453C162.228 25.4453 162.735 25.6315 163.191 26.0505C163.622 26.4462 163.825 26.935 163.825 27.5169C163.825 28.0755 163.597 28.5643 163.191 28.9833C162.76 29.379 162.228 29.5652 161.594 29.5652C161.011 29.5652 160.479 29.379 160.048 28.9833C159.617 28.5643 159.414 28.0755 159.414 27.5169Z" fill="#343037"/>
<path d="M179.235 29.3564L171.605 20.4416V29.3564H166.789V10.3164H171.605V18.6028L178.881 10.3164H184.584L176.067 19.3709L185.04 29.3564H179.235Z" fill="#343037"/>
<path d="M194.725 25.3296H204.662V29.3564H187.07L186.918 28.8909L197.184 14.3665H187.653V10.3164H204.865L205.017 10.8052L194.725 25.3296Z" fill="#343037"/>
</svg>
