<svg width="24" height="24" viewBox="0 0 24 24" fill="none" xmlns="http://www.w3.org/2000/svg">
<path d="M18.0006 18.8963L15.7752 15.143C15.6866 14.9991 15.562 14.9077 15.4015 14.869C15.2409 14.8302 15.0887 14.8496 14.9448 14.9271L13.7324 15.8904C13.4445 16.0343 13.1511 15.9651 12.8522 15.6828C12.5533 15.4004 12.1768 14.9493 11.7229 14.3292L9.81301 11.1074C9.62479 10.6977 9.48916 10.3047 9.40612 9.92823C9.32309 9.55179 9.43104 9.26392 9.72997 9.06463L11.1084 8.40032C11.2634 8.31175 11.3575 8.18442 11.3907 8.01835C11.424 7.85227 11.4018 7.69727 11.3243 7.55334L9.08228 3.80001C9.00477 3.64501 8.88575 3.5509 8.72521 3.51768C8.56467 3.48447 8.41243 3.50661 8.2685 3.58411L7.02293 4.49753C6.84578 4.65254 6.62988 4.95147 6.37523 5.39434C6.12058 5.83721 5.97111 6.4517 5.92683 7.23779C5.88254 8.02388 6.00433 8.9982 6.29219 10.1607C6.59113 11.3122 7.18901 12.6796 8.08582 14.2628C9.03799 15.8904 9.95694 17.147 10.8427 18.0327C11.7395 18.9074 12.5588 19.533 13.3006 19.9094C14.0424 20.2859 14.6846 20.4796 15.2271 20.4907C15.7585 20.5017 16.1405 20.4519 16.373 20.3412L17.7847 19.7267C17.9397 19.6382 18.0338 19.5136 18.067 19.3531C18.1002 19.1925 18.0781 19.0403 18.0006 18.8963Z" fill="#343037"/>
</svg>
