<svg width="24" height="24" viewBox="0 0 24 24" fill="none" xmlns="http://www.w3.org/2000/svg">
<path d="M16.6116 5.76548C17.199 5.76548 17.7734 5.76886 18.3348 5.77562C18.8961 5.78238 19.4444 5.779 19.9797 5.76548C20.8804 5.69792 21.6604 6.00535 22.3197 6.6878C22.979 7.37025 23.2955 8.17094 23.2694 9.08988C23.2433 9.64394 23.2401 10.2081 23.2596 10.7825C23.2792 11.3568 23.2955 11.9278 23.3086 12.4954C23.3086 12.7791 23.2727 12.9819 23.2009 13.1035C23.1291 13.2251 22.9496 13.34 22.6624 13.4481C22.0097 13.7048 21.3569 13.9413 20.7042 14.1576C20.0515 14.3738 19.3889 14.5596 18.7166 14.715C18.0443 14.8704 17.3687 14.9887 16.6899 15.0697C15.998 15.1643 15.3061 15.2184 14.6142 15.2319C14.575 15.2319 14.5359 15.2319 14.4967 15.2319C14.4575 15.2319 14.3988 15.2454 14.3205 15.2724C14.3205 15.5427 14.3172 15.8198 14.3107 16.1035C14.3041 16.3873 14.3074 16.6644 14.3205 16.9346C14.3596 17.4076 14.2291 17.8063 13.9288 18.1306C13.6286 18.4549 13.2369 18.5968 12.7539 18.5563C12.4798 18.5293 12.1926 18.5225 11.8923 18.536C11.592 18.5495 11.2918 18.5563 10.9915 18.5563C10.5999 18.5563 10.2768 18.4245 10.0222 18.161C9.76765 17.8975 9.64037 17.5563 9.64037 17.1373C9.64037 16.8265 9.64037 16.5157 9.64037 16.2049C9.64037 15.8941 9.64037 15.5833 9.64037 15.2724C9.314 15.2319 9.00069 15.1914 8.70044 15.1508C8.40018 15.1103 8.0934 15.0697 7.78008 15.0292C7.23179 14.9346 6.68349 14.8332 6.1352 14.7251C5.59996 14.6035 5.06145 14.4717 4.51968 14.3299C3.97792 14.188 3.43941 14.0359 2.90417 13.8738C2.35587 13.7116 1.82063 13.5427 1.29845 13.367C1.08957 13.2994 0.939445 13.2015 0.848062 13.0731C0.75668 12.9447 0.717516 12.7656 0.73057 12.5359C0.73057 11.9143 0.73057 11.296 0.73057 10.6811C0.73057 10.0663 0.73057 9.448 0.73057 8.82636C0.73057 8.01553 1.0243 7.30944 1.61176 6.70807C2.19922 6.10671 2.88459 5.80603 3.66787 5.80603C4.26838 5.80603 4.87869 5.80603 5.49878 5.80603C6.11888 5.80603 6.74877 5.80603 7.38844 5.80603C7.38844 5.64386 7.38844 5.47832 7.38844 5.30939C7.38844 5.14047 7.38844 4.97493 7.38844 4.81276C7.36233 4.31275 7.45698 3.87355 7.67238 3.49517C7.88778 3.11678 8.19131 2.79245 8.58294 2.52217C8.94847 2.27892 9.33685 2.08973 9.74807 1.95459C10.1593 1.81945 10.5738 1.73162 10.9915 1.69107C11.6573 1.6235 12.31 1.61675 12.9497 1.6708C13.5894 1.72486 14.2226 1.88702 14.8492 2.1573C15.4889 2.44109 15.949 2.80596 16.2297 3.25192C16.5104 3.69787 16.6507 4.27221 16.6507 4.97493C16.6377 5.09655 16.6279 5.22155 16.6213 5.34994C16.6148 5.47832 16.6116 5.61683 16.6116 5.76548ZM14.3205 13.813C14.3466 13.813 14.3759 13.813 14.4086 13.813C14.4412 13.813 14.4706 13.813 14.4967 13.813C15.1103 13.7994 15.7238 13.7589 16.3374 13.6913C16.951 13.6102 17.558 13.5055 18.1585 13.3771C18.759 13.2488 19.353 13.09 19.9405 12.9008C20.541 12.7116 21.1285 12.5021 21.7029 12.2724C21.7681 12.2589 21.8236 12.2116 21.8693 12.1305C21.915 12.0494 21.9379 11.9751 21.9379 11.9075C21.9379 11.394 21.9379 10.8737 21.9379 10.3467C21.9379 9.81962 21.9248 9.28583 21.8987 8.74528C21.8856 8.20473 21.7388 7.79255 21.4581 7.50876C21.1774 7.22497 20.7629 7.08308 20.2146 7.08308C18.8308 7.08308 17.4536 7.08308 16.0828 7.08308C14.699 7.08308 13.3185 7.08308 11.9413 7.08308C10.564 7.08308 9.18346 7.08308 7.79967 7.08308C6.42893 7.08308 5.05166 7.08308 3.66787 7.08308C3.14568 7.08308 2.74099 7.23173 2.45378 7.52904C2.16658 7.82634 2.02298 8.23175 2.02298 8.74528C2.02298 9.24529 2.02298 9.7453 2.02298 10.2453C2.02298 10.7453 2.02298 11.2453 2.02298 11.7453C2.02298 11.8805 2.04583 11.9852 2.09152 12.0595C2.13721 12.1339 2.23186 12.1778 2.37546 12.1913C3.04124 12.3805 3.70377 12.5731 4.36303 12.769C5.02229 12.965 5.68481 13.1305 6.3506 13.2656C6.87279 13.4008 7.40803 13.5055 7.95632 13.5798C8.50462 13.6542 9.03986 13.7319 9.56204 13.813C9.75786 13.2589 9.96347 12.9008 10.1789 12.7386C10.3943 12.5764 10.7761 12.4954 11.3244 12.4954C11.5464 12.4954 11.7715 12.4954 12 12.4954C12.2285 12.4954 12.4536 12.4954 12.6756 12.4954C13.1847 12.5089 13.5535 12.6068 13.782 12.7893C14.0104 12.9717 14.1899 13.3129 14.3205 13.813ZM15.2408 5.72494C15.2408 5.60332 15.2408 5.4817 15.2408 5.36007C15.2408 5.23845 15.2408 5.12358 15.2408 5.01547C15.2408 4.43438 15.1429 4.00869 14.9471 3.73841C14.7513 3.46814 14.3857 3.27219 13.8505 3.15056C13.25 3.00191 12.6495 2.92759 12.049 2.92759C11.4484 2.92759 10.8414 3.00191 10.2278 3.15056C9.45761 3.33976 8.99417 3.62693 8.83751 4.01207C8.68085 4.39721 8.65475 4.96817 8.75918 5.72494H15.2408ZM10.9524 17.1373H12.9301V13.9346H10.9524V17.1373ZM11.951 22.3672C11.2722 22.3672 10.5934 22.3672 9.91452 22.3672C9.23568 22.3672 8.5601 22.3672 7.88778 22.3672C7.21547 22.3672 6.53989 22.3672 5.86105 22.3672C5.18221 22.3672 4.50337 22.3672 3.82452 22.3672C3.0543 22.3672 2.38851 22.1239 1.82716 21.6374C1.26581 21.1509 0.913335 20.5361 0.769734 19.7928C0.73057 19.6847 0.707725 19.5867 0.701197 19.4989C0.69467 19.411 0.691406 19.3131 0.691406 19.205C0.691406 18.4887 0.691406 17.7725 0.691406 17.0563C0.691406 16.34 0.691406 15.617 0.691406 14.8873C0.691406 14.6441 0.753416 14.4447 0.877435 14.2893C1.00145 14.1339 1.1679 14.0562 1.37678 14.0562C1.5726 14.0562 1.72925 14.1339 1.84674 14.2893C1.96424 14.4447 2.03604 14.6576 2.06214 14.9278C2.06214 15.6441 2.06214 16.3535 2.06214 17.0563C2.06214 17.759 2.06214 18.4617 2.06214 19.1644C2.06214 19.7861 2.20575 20.2455 2.49295 20.5428C2.78015 20.8401 3.22401 20.9888 3.82452 20.9888C4.77751 20.9888 5.72398 20.9888 6.66391 20.9888C7.6169 20.9888 8.56663 20.9888 9.51309 20.9888C10.4596 20.9888 11.4093 20.9888 12.3623 20.9888C13.3022 20.9888 14.2487 20.9888 15.2017 20.9888C15.9719 20.9888 16.7356 20.9888 17.4927 20.9888C18.2499 20.9888 19.0136 20.9888 19.7838 20.9888C19.8622 20.9888 19.9405 20.9888 20.0188 20.9888C20.0971 20.9888 20.1624 20.9888 20.2146 20.9888C20.776 20.9753 21.197 20.8199 21.4777 20.5226C21.7584 20.2253 21.8987 19.7861 21.8987 19.205C21.8987 18.5293 21.8987 17.8468 21.8987 17.1576C21.8987 16.4684 21.8987 15.786 21.8987 15.1103C21.8987 15.0427 21.8987 14.9785 21.8987 14.9177C21.8987 14.8569 21.8987 14.8062 21.8987 14.7657C21.9248 14.563 21.9933 14.394 22.1043 14.2589C22.2153 14.1238 22.3621 14.0562 22.5449 14.0562C22.7277 14.0562 22.8876 14.117 23.0247 14.2386C23.1617 14.3603 23.2303 14.5224 23.2303 14.7251C23.2303 15.536 23.2401 16.3434 23.2596 17.1475C23.2792 17.9516 23.2564 18.7522 23.1911 19.5496C23.1519 20.3604 22.8288 21.0259 22.2218 21.5462C21.6148 22.0665 20.9196 22.3402 20.1363 22.3672C19.4575 22.3672 18.7786 22.3672 18.0998 22.3672C17.4209 22.3672 16.7388 22.3672 16.0535 22.3672C15.3681 22.3672 14.686 22.3672 14.0072 22.3672C13.3283 22.3672 12.6429 22.3672 11.951 22.3672Z" fill="#B829A0"/>
</svg>
