<svg width="207" height="40" viewBox="0 0 207 40" fill="none" xmlns="http://www.w3.org/2000/svg">
<g clip-path="url(#clip0_1_1121)">
<path d="M48.9032 16.9032H51.6129V30.8387H56.2581V12.6452H48.7742V16.9032H48.9032ZM59.6129 21.8064C59.6129 27.6129 63.4839 31.3548 68.9032 31.3548C70.4516 31.3548 72.129 31.0968 73.8065 30.0645V24.9032C72.9032 25.8064 71.3548 26.8387 69.5484 26.8387C66.7097 26.8387 64.9032 24.6452 64.9032 21.9355C64.9032 18.9677 66.7097 16.7742 69.5484 16.7742C71.4839 16.7742 72.9032 17.8065 73.8065 18.9677V13.6774C72.2581 12.6452 70.4516 12.2581 68.7742 12.2581C63.871 12.129 59.6129 15.7419 59.6129 21.8064ZM95.7419 19.7419H93.0323V17.0323H101.29V12.6452H88V30.8387H95.7419C97.0323 30.8387 102.839 30.8387 102.839 25.1613C102.839 19.7419 97.1613 19.7419 95.7419 19.7419ZM95.2258 27.2258H93.0323V23.3548H95.2258C96.7742 23.3548 97.8065 23.871 97.8065 25.2903C97.8065 26.7097 96.7742 27.2258 95.2258 27.2258ZM110.323 23.6129V12.6452H105.419V30.8387H110.452L117.419 20V30.8387H122.323V12.6452H117.419L110.323 23.6129ZM124.387 17.0323H128.387V30.8387H133.419V17.0323H137.419V12.6452H124.387V17.0323ZM147.226 12.6452H139.613V30.8387H144.645V24.9032H147.226C152.387 24.9032 153.806 21.2903 153.806 18.8387C153.806 16.2581 152.387 12.6452 147.226 12.6452ZM146.065 20.9032H144.645V16.7742H146.065C148.258 16.7742 148.516 17.9355 148.516 18.8387C148.645 19.4839 148.387 20.9032 146.065 20.9032ZM160.774 23.6129V12.6452H155.871V30.8387H160.903L167.871 20V30.8387H172.774V12.6452H167.742L160.774 23.6129ZM192.258 12.6452H186.323L180.903 20.2581V12.6452H175.871V30.8387H180.903V23.0968L186.194 30.8387H192.516L185.419 21.5484L192.258 12.6452ZM201.677 16.7742C203.613 16.7742 205.032 17.8065 205.936 18.9677V13.6774C204.387 12.6452 202.581 12.2581 200.903 12.2581C196 12.2581 191.742 15.7419 191.742 21.8064C191.742 27.6129 195.613 31.3548 201.032 31.3548C202.581 31.3548 204.258 31.0968 205.936 30.0645V24.9032C205.032 25.8064 203.484 26.8387 201.677 26.8387C198.839 26.8387 197.032 24.6452 197.032 21.9355C197.032 18.9677 198.839 16.7742 201.677 16.7742ZM80.7742 18.8387C79.0968 18.8387 77.8065 20.129 77.8065 21.8064C77.8065 23.4839 79.0968 24.7742 80.7742 24.7742C82.4516 24.7742 83.7419 23.4839 83.7419 21.8064C83.7419 20.2581 82.4516 18.8387 80.7742 18.8387ZM39.871 20C39.871 30.9677 30.9677 40 19.871 40C8.90323 39.871 0 30.9677 0 20C0 13.8065 2.83871 8.25806 7.22581 4.64516V20C7.22581 26.9677 12.9032 32.6452 20 32.6452C26.9677 32.6452 32.6452 26.9677 32.6452 20C32.6452 13.0323 27.0968 7.48387 20.2581 7.35484V10.8387C25.1613 10.9677 29.1613 15.0968 29.1613 20.129C29.1613 25.1613 25.0323 29.4194 19.871 29.4194C14.7097 29.4194 10.5806 25.2903 10.5806 20.129V2.32258C11.2258 2.06452 11.6129 1.80645 12.129 1.54839V19.871C12.129 24.129 15.6129 27.6129 19.871 27.6129C24.129 27.6129 27.6129 24.129 27.6129 19.871C27.6129 15.6129 24.2581 12.2581 20.129 12.129V15.6129C22.3226 15.7419 24.129 17.6774 24.129 20C24.129 22.3226 22.1936 24.3871 19.7419 24.3871C17.4194 24.3871 15.3548 22.4516 15.3548 20V0.516129C17.0323 0.129032 18.4516 0 20 0C30.9677 0 39.871 8.90322 39.871 20Z" fill="#DFE6EC"/>
</g>
<defs>
<clipPath id="clip0_1_1121">
<rect width="206.452" height="40" fill="white"/>
</clipPath>
</defs>
</svg>
