<svg width="30" height="30" viewBox="0 0 30 30" fill="none" xmlns="http://www.w3.org/2000/svg">
<path d="M21.1992 7.7124C23.6992 9.4499 25.4242 12.2124 25.7742 15.3999" stroke="#343037" stroke-width="2" stroke-linecap="round" stroke-linejoin="round"/>
<path d="M4.36328 15.4624C4.68828 12.2874 6.38828 9.5249 8.86328 7.7749" stroke="#343037" stroke-width="2" stroke-linecap="round" stroke-linejoin="round"/>
<path d="M10.2383 26.1748C11.6883 26.9123 13.3383 27.3248 15.0758 27.3248C16.7508 27.3248 18.3258 26.9498 19.7383 26.2623" stroke="#343037" stroke-width="2" stroke-linecap="round" stroke-linejoin="round"/>
<path d="M15.0766 9.6248C16.9958 9.6248 18.5516 8.06899 18.5516 6.1498C18.5516 4.23062 16.9958 2.6748 15.0766 2.6748C13.1574 2.6748 11.6016 4.23062 11.6016 6.1498C11.6016 8.06899 13.1574 9.6248 15.0766 9.6248Z" stroke="#343037" stroke-width="2" stroke-linecap="round" stroke-linejoin="round"/>
<path d="M6.0375 24.9002C7.95669 24.9002 9.5125 23.3444 9.5125 21.4252C9.5125 19.506 7.95669 17.9502 6.0375 17.9502C4.11831 17.9502 2.5625 19.506 2.5625 21.4252C2.5625 23.3444 4.11831 24.9002 6.0375 24.9002Z" stroke="#343037" stroke-width="2" stroke-linecap="round" stroke-linejoin="round"/>
<path d="M23.9633 24.9002C25.8825 24.9002 27.4383 23.3444 27.4383 21.4252C27.4383 19.506 25.8825 17.9502 23.9633 17.9502C22.0441 17.9502 20.4883 19.506 20.4883 21.4252C20.4883 23.3444 22.0441 24.9002 23.9633 24.9002Z" stroke="#343037" stroke-width="2" stroke-linecap="round" stroke-linejoin="round"/>
</svg>
