<svg width="199" height="80" viewBox="0 0 199 80" fill="none" xmlns="http://www.w3.org/2000/svg">
<path d="M40.0005 0C17.8979 0 0 17.8977 0 40C0 62.1023 17.8979 80 40.0005 80C62.1031 80 80.001 62.1023 80.001 40C80.001 17.8977 62.1031 0 40.0005 0ZM41.7619 53.0682C34.6595 53.0682 28.864 47.3295 28.864 40.1705C28.864 33.0114 34.6595 27.3295 41.7619 27.3295C48.8643 27.3295 54.6598 33.0682 54.6598 40.2273C54.6598 47.3864 48.8643 53.0682 41.7619 53.0682Z" fill="url(#paint0_linear_36_3402)"/>
<path d="M172.725 26.8188C171.021 26.8188 169.6 28.1256 169.6 29.887C169.6 31.6483 171.021 33.012 172.725 33.012H191.532C193.521 33.012 195.282 33.8074 196.589 35.0574C197.214 35.6256 197.726 36.3643 198.067 37.1029C198.521 38.0688 198.748 39.0915 198.748 40.2279C198.748 44.2052 195.51 47.5006 191.476 47.5006H160.055L162.157 45.3983C163.521 44.0347 165.168 43.2961 167.1 43.2961H186.305C188.01 43.2961 189.43 41.9893 189.43 40.2279C189.43 38.5233 188.01 37.1029 186.305 37.1029H167.498C165.509 37.1029 163.748 36.3074 162.441 35.0574C161.816 34.4893 161.305 33.7506 160.964 33.012C160.509 32.0461 160.282 31.0233 160.282 29.887C160.282 25.9097 163.521 22.6143 167.555 22.6143H198.976L196.873 24.7165C195.51 26.0802 193.862 26.8188 191.93 26.8188H172.725Z" fill="white"/>
<path d="M89.2656 47.4438V22.6143H98.6407V40.5688L120.459 22.6143H128.414L113.868 34.6029L114.38 35.0574C119.436 39.3188 124.152 43.2393 129.209 47.5006H121.425C118.357 47.5006 115.743 46.5347 113.414 44.4893L111.823 43.1256L107.789 39.6597L98.6976 47.1029L98.243 47.5006H89.2656V47.4438Z" fill="white"/>
<path d="M161.424 35.0574C160.118 33.7506 158.299 33.012 156.368 33.012H137.561C135.856 33.012 134.435 31.5915 134.435 29.887C134.435 28.1824 135.856 26.8188 137.561 26.8188H156.765C158.697 26.8188 160.345 26.0802 161.709 24.7165L163.811 22.6143H132.39C128.413 22.6143 125.117 25.8529 125.117 29.887C125.117 31.0233 125.344 32.0461 125.799 33.012C126.197 33.8074 126.651 34.4893 127.276 35.0574C128.583 36.3643 130.401 37.1029 132.333 37.1029H151.14C152.845 37.1029 154.265 38.5233 154.265 40.2279C154.265 41.9324 152.845 43.2961 151.14 43.2961H131.935C130.117 43.2961 128.526 43.9779 127.219 45.1711L129.435 47.0461L130.004 47.5006H156.368C160.345 47.5006 163.64 44.262 163.64 40.2279C163.64 39.0915 163.413 38.0688 162.959 37.1029C162.561 36.3643 162.049 35.6824 161.424 35.0574Z" fill="white"/>
<path d="M90.8552 55.795L94.6052 59.2609H93.3552L90.0597 56.2496V59.2609H89.0938V52.3291H90.0597V55.3405L93.3552 52.3291H94.6052L90.8552 55.795Z" fill="white"/>
<path d="M97.4432 54.3174C98.125 54.3174 98.6932 54.4878 99.1478 54.8287C99.5455 55.1697 99.7728 55.6242 99.7728 56.2492V59.3174H98.8637V58.806C98.4659 59.2606 97.8978 59.4878 97.1591 59.4878C96.5909 59.4878 96.0796 59.3742 95.7386 59.0901C95.3977 58.806 95.1704 58.4083 95.1704 57.8969C95.1704 57.3287 95.3409 56.931 95.7386 56.7037C96.1364 56.4765 96.6477 56.306 97.2728 56.306H98.8069C98.8069 55.5674 98.3523 55.2265 97.3864 55.2265C97.1023 55.2265 96.8182 55.2833 96.5341 55.3969C96.3068 55.5106 96.1364 55.681 96.0227 55.9083H95C95.1136 55.3969 95.3977 55.056 95.8523 54.7719C96.3637 54.4878 96.875 54.3174 97.4432 54.3174ZM98.8637 57.3856V57.0447H97.3296C96.5341 57.0447 96.1364 57.3287 96.1364 57.8401C96.1364 58.3515 96.5341 58.6356 97.2728 58.6356C97.7841 58.6356 98.125 58.5219 98.4091 58.2947C98.6932 58.0106 98.8637 57.7265 98.8637 57.3856Z" fill="white"/>
<path d="M105.23 59.3178H100.969V58.5224L104.037 55.2837H100.969V54.4883H105.173V55.2837L102.105 58.5224H105.23V59.3178Z" fill="white"/>
<path d="M105.969 57.5559H106.991C107.162 57.84 107.446 58.1241 107.787 58.2946C108.128 58.465 108.526 58.5787 108.98 58.5787C109.492 58.5787 109.946 58.465 110.287 58.2378C110.628 58.0105 110.798 57.7264 110.798 57.3855C110.798 57.0446 110.685 56.8173 110.457 56.6468C110.23 56.4764 109.832 56.3628 109.321 56.3059L108.128 56.1923C107.446 56.1355 106.991 55.9082 106.651 55.5673C106.31 55.2264 106.196 54.8287 106.196 54.2605C106.196 53.6355 106.423 53.1241 106.935 52.7264C107.446 52.3287 108.071 52.1582 108.923 52.1582C109.719 52.1582 110.344 52.3287 110.855 52.7264C111.367 53.1241 111.707 53.5218 111.878 54.0332H110.855C110.742 53.7491 110.457 53.5218 110.117 53.2946C109.776 53.1241 109.378 53.0105 108.923 53.0105C108.412 53.0105 107.957 53.1241 107.673 53.3514C107.389 53.5787 107.219 53.8628 107.219 54.2037C107.219 54.8287 107.673 55.1696 108.526 55.2832L109.832 55.3968C110.457 55.4537 110.969 55.6809 111.367 56.0218C111.707 56.3628 111.935 56.8173 111.935 57.3287C111.935 57.8968 111.707 58.4082 111.196 58.8059C110.685 59.2037 110.003 59.4309 109.151 59.4309C108.298 59.4309 107.616 59.2605 107.162 58.8627C106.48 58.5218 106.139 58.0673 105.969 57.5559Z" fill="white"/>
<path d="M113.352 53.125H114.261V54.4318H115.795V55.2273H114.261V57.5C114.261 57.8409 114.318 58.0682 114.489 58.2386C114.602 58.4091 114.83 58.4659 115.17 58.4659H115.852V59.2614H115.114C114.545 59.2614 114.148 59.1477 113.864 58.8636C113.58 58.5795 113.409 58.2386 113.409 57.7273V55.2273H112.5V54.4318H113.409V53.125H113.352Z" fill="white"/>
<path d="M117.16 54.4875H118.069V55.1693C118.41 54.6579 118.978 54.4307 119.774 54.4307H120.058V55.2829H119.774C119.262 55.2829 118.808 55.4534 118.524 55.7375C118.24 56.0216 118.069 56.4761 118.069 56.9875V59.317H117.16V54.4875Z" fill="white"/>
<path d="M123.303 54.3174C124.042 54.3174 124.61 54.5447 125.121 55.056C125.633 55.5674 125.86 56.1356 125.86 56.8742C125.86 57.6128 125.633 58.2378 125.121 58.6924C124.61 59.2037 124.042 59.431 123.303 59.431C122.564 59.431 121.996 59.2037 121.485 58.6924C121.03 58.181 120.746 57.6128 120.746 56.8742C120.746 56.1356 120.973 55.5106 121.485 55.056C121.996 54.5447 122.564 54.3174 123.303 54.3174ZM122.167 58.1242C122.451 58.4651 122.848 58.6356 123.36 58.6356C123.814 58.6356 124.212 58.4651 124.553 58.1242C124.837 57.7833 125.008 57.3856 125.008 56.931C125.008 56.4197 124.837 56.0219 124.553 55.681C124.269 55.3401 123.871 55.1697 123.36 55.1697C122.848 55.1697 122.507 55.3401 122.167 55.681C121.882 56.0219 121.712 56.4197 121.712 56.931C121.655 57.3856 121.826 57.7833 122.167 58.1242Z" fill="white"/>
<path d="M128.585 59.261L126.426 54.4883H127.449L129.096 58.1246L130.744 54.4883H131.71L129.437 59.6019C129.096 60.3406 128.869 60.8519 128.699 61.0224C128.471 61.3065 128.13 61.4769 127.676 61.4769C127.619 61.4769 127.562 61.4769 127.449 61.4769H126.994V60.6815H127.278C127.562 60.6815 127.789 60.6246 127.903 60.511C128.017 60.3974 128.187 60.1133 128.358 59.7724L128.585 59.261Z" fill="white"/>
<path d="M132.047 57.5559H133.07C133.24 57.84 133.524 58.1241 133.865 58.2946C134.206 58.465 134.604 58.5787 135.058 58.5787C135.57 58.5787 136.024 58.465 136.365 58.2378C136.706 58.0105 136.876 57.7264 136.876 57.3855C136.876 57.0446 136.763 56.8173 136.536 56.6468C136.308 56.4764 135.911 56.3628 135.399 56.3059L134.206 56.1923C133.524 56.1355 133.07 55.9082 132.729 55.5673C132.388 55.2264 132.274 54.8287 132.274 54.2605C132.274 53.6355 132.501 53.1241 133.013 52.7264C133.524 52.3287 134.149 52.1582 135.001 52.1582C135.797 52.1582 136.422 52.3287 136.933 52.7264C137.445 53.1241 137.786 53.5218 137.956 54.0332H136.933C136.82 53.7491 136.536 53.5218 136.195 53.2946C135.854 53.1241 135.456 53.0105 135.001 53.0105C134.49 53.0105 134.036 53.1241 133.751 53.3514C133.467 53.5787 133.297 53.8628 133.297 54.2037C133.297 54.8287 133.751 55.1696 134.604 55.2832L135.911 55.3968C136.536 55.4537 137.047 55.6809 137.445 56.0218C137.786 56.3628 138.013 56.8173 138.013 57.3287C138.013 57.8968 137.786 58.4082 137.274 58.8059C136.763 59.2037 136.081 59.4309 135.229 59.4309C134.376 59.4309 133.695 59.2605 133.24 58.8627C132.615 58.5218 132.274 58.0673 132.047 57.5559Z" fill="white"/>
<path d="M141.424 58.5787C142.049 58.5787 142.447 58.3515 142.731 57.9537H143.697C143.526 58.4083 143.242 58.806 142.845 59.0333C142.447 59.3174 141.992 59.431 141.424 59.431C140.685 59.431 140.117 59.2037 139.606 58.6924C139.151 58.181 138.867 57.6128 138.867 56.8742C138.867 56.1356 139.094 55.5106 139.549 55.056C140.004 54.5447 140.629 54.3174 141.31 54.3174C141.992 54.3174 142.56 54.5447 143.015 55.056C143.47 55.5106 143.697 56.1356 143.697 56.8174C143.697 57.0447 143.697 57.1583 143.697 57.2151H139.776C139.833 57.6128 140.004 57.9537 140.288 58.181C140.685 58.4651 141.026 58.5787 141.424 58.5787ZM141.367 55.1697C140.969 55.1697 140.629 55.2833 140.344 55.5106C140.06 55.7378 139.89 56.0219 139.833 56.4197H142.788C142.731 56.0219 142.56 55.7378 142.333 55.5106C142.106 55.2833 141.765 55.1697 141.367 55.1697Z" fill="white"/>
<path d="M145.117 54.4875H146.026V55.1693C146.367 54.6579 146.935 54.4307 147.731 54.4307H148.015V55.2829H147.731C147.219 55.2829 146.765 55.4534 146.481 55.7375C146.197 56.0216 146.026 56.4761 146.026 56.9875V59.317H145.117V54.4875Z" fill="white"/>
<path d="M154.153 54.4883L151.994 59.3178H151.085L148.926 54.4883H149.949L151.596 58.1246L153.244 54.4883H154.153Z" fill="white"/>
<path d="M155.059 53.352V52.2725H156.138V53.352H155.059ZM155.115 54.4884H156.024V59.3179H155.115V54.4884Z" fill="white"/>
<path d="M162.22 55.8511H161.254C160.97 55.3966 160.572 55.1693 159.947 55.1693C159.493 55.1693 159.095 55.3398 158.811 55.6807C158.527 56.0216 158.357 56.4193 158.357 56.9307C158.357 57.442 158.527 57.8398 158.811 58.1807C159.095 58.5216 159.493 58.692 159.947 58.692C160.516 58.692 160.97 58.4648 161.254 58.0102H162.22C162.05 58.4648 161.766 58.8625 161.368 59.1466C160.97 59.4307 160.516 59.5443 159.947 59.5443C159.209 59.5443 158.641 59.317 158.129 58.8057C157.618 58.2943 157.391 57.7261 157.391 56.9875C157.391 56.2488 157.618 55.6238 158.129 55.1693C158.641 54.6579 159.209 54.4307 159.947 54.4307C160.459 54.4307 160.97 54.5443 161.368 54.8284C161.766 54.9988 162.05 55.3966 162.22 55.8511Z" fill="white"/>
<path d="M165.74 58.5787C166.365 58.5787 166.763 58.3515 167.047 57.9537H168.013C167.843 58.4083 167.559 58.806 167.161 59.0333C166.763 59.3174 166.309 59.431 165.74 59.431C165.002 59.431 164.434 59.2037 163.922 58.6924C163.411 58.181 163.184 57.6128 163.184 56.8742C163.184 56.1356 163.411 55.5106 163.865 55.056C164.32 54.5447 164.945 54.3174 165.627 54.3174C166.309 54.3174 166.877 54.5447 167.331 55.056C167.786 55.5106 168.013 56.1356 168.013 56.8174C168.013 57.0447 168.013 57.1583 168.013 57.2151H164.093C164.15 57.6128 164.32 57.9537 164.604 58.181C165.002 58.4651 165.343 58.5787 165.74 58.5787ZM165.684 55.1697C165.286 55.1697 164.945 55.2833 164.661 55.5106C164.377 55.7378 164.206 56.0219 164.15 56.4197H167.104C167.047 56.0219 166.877 55.7378 166.65 55.5106C166.422 55.2833 166.081 55.1697 165.684 55.1697Z" fill="white"/>
<path d="M54.4318 14.4316C40.3407 14.4316 28.8633 25.8521 28.8633 39.9998C28.8633 40.0566 28.8633 40.0566 28.8633 40.1135C28.9769 33.0112 34.7156 27.3294 41.7612 27.3294C48.8635 27.3294 54.6591 33.068 54.6591 40.2271C54.6591 47.3862 48.9204 53.1248 41.7612 53.1248C34.8861 53.1248 29.3178 47.7839 28.9201 41.0225C29.4315 54.6589 40.6816 65.6248 54.4318 65.6248C68.5229 65.6248 80.0003 54.2044 80.0003 40.0566C80.0003 25.9089 68.5797 14.4316 54.4318 14.4316Z" fill="url(#paint1_linear_36_3402)"/>
<defs>
<linearGradient id="paint0_linear_36_3402" x1="80.0033" y1="39.9943" x2="-0.00289939" y2="39.9943" gradientUnits="userSpaceOnUse">
<stop stop-color="#72C9FA"/>
<stop offset="0.2584" stop-color="#55A5F8"/>
<stop offset="0.5828" stop-color="#357DF7"/>
<stop offset="0.8414" stop-color="#2165F5"/>
<stop offset="1" stop-color="#1A5CF5"/>
</linearGradient>
<linearGradient id="paint1_linear_36_3402" x1="28.9095" y1="39.9941" x2="80.0026" y2="39.9941" gradientUnits="userSpaceOnUse">
<stop stop-color="#72C9FA"/>
<stop offset="0.2584" stop-color="#55A5F8"/>
<stop offset="0.5828" stop-color="#357DF7"/>
<stop offset="0.8414" stop-color="#2165F5"/>
<stop offset="1" stop-color="#1A5CF5"/>
</linearGradient>
</defs>
</svg>
