<svg width="30" height="30" viewBox="0 0 30 30" fill="none" xmlns="http://www.w3.org/2000/svg">
<path d="M10.4766 15.0001L13.4891 18.0251L19.5266 11.9751" stroke="#343037" stroke-width="2" stroke-linecap="round" stroke-linejoin="round"/>
<path d="M13.4391 3.0624C14.3016 2.3249 15.7141 2.3249 16.5891 3.0624L18.5641 4.7624C18.9391 5.0874 19.6391 5.3499 20.1391 5.3499H22.2641C23.5891 5.3499 24.6766 6.4374 24.6766 7.7624V9.8874C24.6766 10.3749 24.9391 11.0874 25.2641 11.4624L26.9641 13.4374C27.7016 14.2999 27.7016 15.7124 26.9641 16.5874L25.2641 18.5624C24.9391 18.9374 24.6766 19.6374 24.6766 20.1374V22.2624C24.6766 23.5874 23.5891 24.6749 22.2641 24.6749H20.1391C19.6516 24.6749 18.9391 24.9374 18.5641 25.2624L16.5891 26.9624C15.7266 27.6999 14.3141 27.6999 13.4391 26.9624L11.4641 25.2624C11.0891 24.9374 10.3891 24.6749 9.88906 24.6749H7.72656C6.40156 24.6749 5.31406 23.5874 5.31406 22.2624V20.1249C5.31406 19.6374 5.05156 18.9374 4.73906 18.5624L3.05156 16.5749C2.32656 15.7124 2.32656 14.3124 3.05156 13.4499L4.73906 11.4624C5.05156 11.0874 5.31406 10.3874 5.31406 9.8999V7.7499C5.31406 6.4249 6.40156 5.3374 7.72656 5.3374H9.88906C10.3766 5.3374 11.0891 5.0749 11.4641 4.7499L13.4391 3.0624Z" stroke="#343037" stroke-width="2" stroke-linecap="round" stroke-linejoin="round"/>
</svg>
