<svg width="80" height="80" viewBox="0 0 80 80" fill="none" xmlns="http://www.w3.org/2000/svg">
<rect width="80" height="80" rx="40" fill="url(#paint0_linear_36_1551)"/>
<path opacity="0.4" d="M52.5 57.7083H50.4167V57.1875C50.4167 54.8958 48.5417 53.0208 46.25 53.0208H41.5625V48.25C41.0417 48.3125 40.5208 48.3333 40 48.3333C39.4792 48.3333 38.9583 48.3125 38.4375 48.25V53.0208H33.75C31.4583 53.0208 29.5833 54.8958 29.5833 57.1875V57.7083H27.5C26.6458 57.7083 25.9375 58.4167 25.9375 59.2708C25.9375 60.125 26.6458 60.8333 27.5 60.8333H52.5C53.3542 60.8333 54.0625 60.125 54.0625 59.2708C54.0625 58.4167 53.3542 57.7083 52.5 57.7083Z" fill="white"/>
<path opacity="0.4" d="M26.5 39.2503C25.125 38.7295 23.9167 37.8753 22.9583 36.917C21.0208 34.7712 19.75 32.2087 19.75 29.2087C19.75 26.2087 22.1042 23.8545 25.1042 23.8545H26.2708C25.7292 24.9587 25.4167 26.1878 25.4167 27.5003V33.7503C25.4167 35.7087 25.7917 37.5628 26.5 39.2503Z" fill="white"/>
<path opacity="0.4" d="M60.25 29.2087C60.25 32.2087 58.9792 34.7712 57.0417 36.917C56.0833 37.8753 54.875 38.7295 53.5 39.2503C54.2083 37.5628 54.5833 35.7087 54.5833 33.7503V27.5003C54.5833 26.1878 54.2708 24.9587 53.7292 23.8545H54.8958C57.8958 23.8545 60.25 26.2087 60.25 29.2087Z" fill="white"/>
<path d="M46.2493 19.166H33.7493C29.1452 19.166 25.416 22.8952 25.416 27.4993V33.7493C25.416 41.8118 31.9368 48.3327 39.9993 48.3327C48.0618 48.3327 54.5827 41.8118 54.5827 33.7493V27.4993C54.5827 22.8952 50.8535 19.166 46.2493 19.166ZM45.916 32.6035L44.6243 34.1868C44.416 34.416 44.2702 34.8743 44.291 35.1868L44.416 37.2285C44.4993 38.4785 43.6035 39.1243 42.4368 38.666L40.541 37.916C40.2493 37.8118 39.7493 37.8118 39.4577 37.916L37.5618 38.666C36.3952 39.1243 35.4993 38.4785 35.5827 37.2285L35.7077 35.1868C35.7285 34.8743 35.5827 34.416 35.3743 34.1868L34.0827 32.6035C33.2702 31.6452 33.6243 30.5827 34.8327 30.2702L36.8118 29.7702C37.1243 29.6868 37.4993 29.3952 37.666 29.1243L38.7702 27.416C39.4577 26.3535 40.541 26.3535 41.2285 27.416L42.3327 29.1243C42.4993 29.3952 42.8743 29.6868 43.1868 29.7702L45.166 30.2702C46.3743 30.5827 46.7285 31.6452 45.916 32.6035Z" fill="white"/>
<path opacity="0.4" d="M45.9165 32.6045L44.6248 34.1878C44.4165 34.417 44.2706 34.8753 44.2915 35.1878L44.4165 37.2295C44.4998 38.4795 43.604 39.1253 42.4373 38.667L40.5415 37.917C40.2498 37.8128 39.7498 37.8128 39.4581 37.917L37.5623 38.667C36.3956 39.1253 35.4998 38.4795 35.5831 37.2295L35.7081 35.1878C35.729 34.8753 35.5831 34.417 35.3748 34.1878L34.0831 32.6045C33.2706 31.6462 33.6248 30.5837 34.8331 30.2712L36.8123 29.7712C37.1248 29.6878 37.4998 29.3962 37.6665 29.1253L38.7706 27.417C39.4581 26.3545 40.5415 26.3545 41.229 27.417L42.3331 29.1253C42.4998 29.3962 42.8748 29.6878 43.1873 29.7712L45.1665 30.2712C46.3748 30.5837 46.729 31.6462 45.9165 32.6045Z" fill="white"/>
<defs>
<linearGradient id="paint0_linear_36_1551" x1="2.98023e-07" y1="40" x2="80" y2="40" gradientUnits="userSpaceOnUse">
<stop stop-color="#B829A0"/>
<stop offset="1" stop-color="#6366F1"/>
</linearGradient>
</defs>
</svg>
