<svg width="217" height="40" viewBox="0 0 217 40" fill="none" xmlns="http://www.w3.org/2000/svg">
<g clip-path="url(#clip0_1_1100)">
<path d="M149.655 29.3793H169.241V24.9655H156.276C158.069 17.7931 168.965 16.2759 168.965 8.27585C168.965 3.99999 166.069 0.827576 160 0.827576C156.138 0.827576 152.966 1.93102 150.621 3.03447L152 7.03447C154.069 6.06896 156.414 5.10344 159.31 5.10344C161.517 5.10344 163.724 6.06896 163.724 8.68965C163.586 14.7586 150.897 15.3103 149.655 29.3793ZM169.931 22.4827H182.483V29.3793H187.586V22.4827H191.724V18.3448H187.586V1.10344H183.862L169.931 19.1724V22.4827ZM175.586 18.3448L182.759 8.68965C182.759 9.51723 182.483 12 182.483 14.2069V18.2069H179.172C178.069 18.3448 176.276 18.3448 175.586 18.3448ZM5.24136 25.1034V16.2759H7.31033C9.24136 16.2759 10.7586 16.5517 11.8621 17.1034C12.9655 17.7931 13.6552 18.8965 13.6552 20.6896C13.6552 23.7241 11.8621 25.1034 7.58621 25.1034H5.24136ZM0.137939 29.3793H7.58621C15.8621 29.3793 18.8966 25.6552 18.8966 20.6896C18.8966 17.2414 17.3793 14.8965 14.8965 13.6552C12.8276 12.5517 10.3448 12.2759 7.17243 12.2759H5.10346V5.3793H16.4138L17.7931 1.24137H0L0.137939 29.3793ZM22.3448 29.3793H27.3103L33.6552 20.2759C34.8965 18.6207 35.7241 16.9655 36.2758 16H36.4138C36.2759 17.2414 36.2758 18.7586 36.2758 20.4138V29.3793H41.2414V9.24137H36.2758L29.931 18.3448C28.8276 20 27.8621 21.6552 27.3103 22.6207H27.1724C27.3104 21.3793 27.3103 19.8621 27.3103 18.2069V9.24137H22.3448V29.3793ZM49.7931 29.3793H54.8965V13.3793H60.8276L62.2069 9.10344H43.7242V13.3793H49.931V29.3793H49.7931ZM64 39.4483H69.1035V29.2414C70.069 29.5172 71.1724 29.6552 72.2758 29.6552C78.6207 29.6552 82.7586 25.2414 82.7586 19.0345C82.7586 12.5517 78.8965 8.55171 71.7241 8.55171C68.9655 8.55171 66.3448 9.10344 64.1379 9.79309V39.4483H64ZM69.1035 25.1034V13.2414C69.931 12.9655 70.6207 12.9655 71.4483 12.9655C75.0345 12.9655 77.5173 15.0345 77.5173 19.3103C77.5173 23.1724 75.5862 25.6552 71.8621 25.6552C70.7586 25.5172 69.931 25.3793 69.1035 25.1034ZM85.6552 29.3793H90.6207L96.9655 20.2759C98.2069 18.6207 99.0345 16.9655 99.5862 16H99.7241C99.5862 17.2414 99.5862 18.7586 99.5862 20.4138V29.3793H104.552V9.24137H99.5862L93.2414 18.3448C92.1379 20 91.1724 21.6552 90.6207 22.6207H90.4828C90.6207 21.3793 90.6207 19.8621 90.6207 18.2069V9.24137H85.6552V29.3793ZM108.552 29.3793H113.655V20.9655H116.69C117.241 20.9655 117.793 21.5172 118.483 22.8965L121.103 29.3793H126.621L122.897 21.6552C122.207 20.2759 121.517 19.5862 120.552 19.1724V19.0345C122.207 18.069 122.483 15.1724 123.448 13.6552C123.724 13.2414 124.276 12.9655 124.828 12.9655C125.241 12.9655 125.655 12.9655 125.931 13.1034V8.96551C125.379 8.68964 124.414 8.68965 123.862 8.68965C122.069 8.68965 120.966 9.3793 120.138 10.4827C118.483 12.9655 118.483 17.1034 116 17.1034H113.655V9.24137H108.552V29.3793ZM137.793 29.7931C140.552 29.7931 143.034 28.9655 144.69 27.8621L143.172 24.4138C141.793 25.2414 140.414 25.7931 138.483 25.7931C135.034 25.7931 132.828 23.5862 132.828 19.4483C132.828 15.7241 135.034 12.9655 138.759 12.9655C140.69 12.9655 142.207 13.5172 143.724 14.4827V10.2069C142.621 9.51723 140.828 8.82758 138.345 8.82758C132.276 8.82758 127.724 13.2414 127.724 19.5862C127.586 25.2414 131.31 29.7931 137.793 29.7931ZM206.621 3.44827C201.517 3.44827 197.241 7.5862 197.241 12.8276C197.241 17.931 201.379 22.2069 206.621 22.2069C211.724 22.2069 216 18.069 216 12.8276C216 7.72413 211.862 3.44827 206.621 3.44827ZM212.276 14.2069H205.931V7.86206H207.31V12.8276H212.276V14.2069Z" fill="#DFE6EC"/>
</g>
<defs>
<clipPath id="clip0_1_1100">
<rect width="216.552" height="40" fill="white"/>
</clipPath>
</defs>
</svg>
