<svg width="30" height="30" viewBox="0 0 30 30" fill="none" xmlns="http://www.w3.org/2000/svg">
<g clip-path="url(#clip0_1_129)">
<path d="M27.2609 4.92485C25.3359 9.72485 20.5109 16.2498 16.4734 19.4873L14.0109 21.4623C13.6984 21.6873 13.3859 21.8873 13.0359 22.0248C13.0359 21.7998 13.0234 21.5498 12.9859 21.3123C12.8484 20.2623 12.3734 19.2873 11.5359 18.4498C10.6859 17.5998 9.64844 17.0998 8.58594 16.9623C8.33594 16.9498 8.08594 16.9248 7.83594 16.9498C7.97344 16.5623 8.18594 16.1998 8.44844 15.8998L10.3984 13.4373C13.6234 9.39985 20.1734 4.54985 24.9609 2.63735C25.6984 2.36235 26.4109 2.56235 26.8609 3.02485C27.3359 3.48735 27.5609 4.19985 27.2609 4.92485Z" stroke="#343037" stroke-width="2" stroke-linecap="round" stroke-linejoin="round"/>
<path d="M13.0366 22.025C13.0366 23.4 12.5116 24.7125 11.5241 25.7125C10.7616 26.475 9.72412 27 8.48662 27.1625L5.41162 27.5C3.73662 27.6875 2.29912 26.2625 2.49912 24.5625L2.83662 21.4875C3.13662 18.75 5.42412 17 7.84912 16.95C8.09912 16.9375 8.36162 16.95 8.59912 16.9625C9.66162 17.1 10.6991 17.5875 11.5491 18.45C12.3866 19.2875 12.8616 20.2625 12.9991 21.3125C13.0116 21.55 13.0366 21.7875 13.0366 22.025Z" stroke="#343037" stroke-width="2" stroke-linecap="round" stroke-linejoin="round"/>
<path d="M17.7992 18.0873C17.7992 14.8248 15.1492 12.1748 11.8867 12.1748" stroke="#343037" stroke-width="2" stroke-linecap="round" stroke-linejoin="round"/>
<path d="M25.1484 15.9126L26.0734 16.8251C27.9359 18.6876 27.9359 20.5251 26.0734 22.3876L22.3734 26.0876C20.5359 27.9251 18.6734 27.9251 16.8359 26.0876" stroke="#343037" stroke-width="2" stroke-linecap="round"/>
<path d="M3.88594 13.1377C2.04844 11.2752 2.04844 9.4377 3.88594 7.5752L7.58594 3.8752C9.42344 2.0377 11.2859 2.0377 13.1234 3.8752L14.0484 4.8002" stroke="#343037" stroke-width="2" stroke-linecap="round"/>
<path d="M14.0625 4.8125L9.4375 9.4375" stroke="#343037" stroke-width="2" stroke-linecap="round"/>
<path d="M25.1492 15.9126L21.4492 19.6001" stroke="#343037" stroke-width="2" stroke-linecap="round"/>
</g>
<defs>
<clipPath id="clip0_1_129">
<rect width="30" height="30" fill="white"/>
</clipPath>
</defs>
</svg>
